<?xml version="1.0" encoding="utf-8"?>
<svg viewBox="0 0 500 400" xmlns="http://www.w3.org/2000/svg">
  <g id="Layer_2" data-name="Layer 2" transform="matrix(0.388848, 0, 0, 0.388848, 79.74881, 86.258926)" style="">
    <g id="Layer_2-2" data-name="Layer 2">
      <polygon class="cls-1" points="185.71 0 70.7 458.97 300.71 458.97 185.71 0" style="fill: rgb(153, 87, 74);"/>
      <polygon class="cls-2" points="76.29 143.87 0 458.97 152.57 458.97 76.29 143.87" style="fill: rgb(179, 115, 97);"/>
      <line class="cls-3" x1="76.29" y1="243.57" x2="76.29" y2="458.97" style="fill: none; stroke: rgb(251, 220, 142); stroke-linecap: round; stroke-miterlimit: 10; stroke-width: 3px;"/>
      <line class="cls-3" x1="185.71" y1="131.2" x2="185.71" y2="458.97" style="fill: none; stroke: rgb(251, 220, 142); stroke-linecap: round; stroke-miterlimit: 10; stroke-width: 3px;"/>
      <line class="cls-3" x1="76.29" y1="324.04" x2="96.53" y2="303.8" style="fill: none; stroke: rgb(251, 220, 142); stroke-linecap: round; stroke-miterlimit: 10; stroke-width: 3px;"/>
      <line class="cls-3" x1="76.29" y1="411.46" x2="44.81" y2="379.98" style="fill: none; stroke: rgb(251, 220, 142); stroke-linecap: round; stroke-miterlimit: 10; stroke-width: 3px;"/>
      <line class="cls-3" x1="185.71" y1="224.84" x2="162.69" y2="201.82" style="fill: none; stroke: rgb(251, 220, 142); stroke-linecap: round; stroke-miterlimit: 10; stroke-width: 3px;"/>
      <line class="cls-3" x1="185.71" y1="357.34" x2="231.57" y2="311.48" style="fill: none; stroke: rgb(251, 220, 142); stroke-linecap: round; stroke-miterlimit: 10; stroke-width: 3px;"/>
    </g>
  </g>
  <g id="g-1" data-name="Layer 2" transform="matrix(0.648436, 0, 0, 0.648436, 75.06852, 46.654774)" style="">
    <g id="g-2" data-name="Layer 2">
      <path class="cls-1" d="M0,65.85C0,51.27,36.18,48.18,50.48,48.18c29,0,30.92-16.6,55-16.6,21.17,0,31.94,17.14,51.65,17.14C199.43,48.72,208.85,0,250,0c41.87,0,39.73,50.86,78.69,50.86,19.81,0,138.82,3.74,138.82,15Z" style="fill: rgb(212, 212, 212);"/>
    </g>
  </g>
  <g id="g-3" data-name="Layer 2" transform="matrix(0.731517, 0, 0, 0.731517, 211.125717, 65.530869)" style="">
    <g id="g-4" data-name="Layer 2">
      <path class="cls-1" d="M0,64.4c0-9.21,31.36-23.62,48.51-23.62,33.83,0,23.27,11.81,44.55,11.81C117.31,52.59,122.85,0,159.75,0c40.33,0,34,51.44,58.75,51.44,10.66,0,16-5,31.15-5,8.79,0,18.41,8.78,18.41,18Z" style="fill: rgb(233, 232, 232);"/>
    </g>
  </g>
  <g id="g-5" data-name="Layer 2" transform="matrix(0.288415, 0, 0, 0.248861, 104.363754, 256.792297)" style="">
    <g id="g-6" data-name="Layer 2">
      <path class="cls-1" d="M841.15,328.47c.17-3.64.28-7.29.28-11C841.43,142.15,653.07,0,420.72,0S0,142.15,0,317.51c0,3.67.11,7.32.28,11Z" style="fill: rgb(226, 226, 226);"/>
      <path class="cls-2" d="M1081.72,328.47c.12-2.57.21-5.15.21-7.74,0-123.86-140.65-224.27-314.15-224.27S453.63,196.87,453.63,320.73c0,2.59.08,5.17.21,7.74Z" style="fill: rgb(239, 239, 239);"/>
    </g>
  </g>
  <g id="g-7" data-name="Layer 2" transform="matrix(0.430119, 0, 0, 0.430119, 298.322815, 236.603729)" style="">
    <g id="g-8" data-name="Layer 2">
      <path class="cls-1" d="M3.49,63.29C-17,82.85,59.25,153.53,70.34,143.83S23.53,44.19,3.49,63.29Z" style="fill: rgb(115, 229, 226);"/>
      <path class="cls-2" d="M12.12,73.09c8.6,7.44,48,50.38,58.22,70.74" style="fill: none; stroke: rgb(251, 220, 142); stroke-linecap: round; stroke-miterlimit: 10; stroke-width: 2px;"/>
      <path class="cls-3" d="M42.86.52C81.58-10,95.85,141.66,76.3,146.07S20.64,6.56,42.86.52Z" style="fill: rgb(80, 184, 157);"/>
      <path class="cls-2" d="M51.7,25.86C54.85,35,72.51,99.39,76.3,146.07" style="fill: none; stroke: rgb(251, 220, 142); stroke-linecap: round; stroke-miterlimit: 10; stroke-width: 2px;"/>
    </g>
  </g>
  <g id="g-9" data-name="Layer 2" transform="matrix(0.543868, 0, 0, 0.543868, 270.476746, 315.490173)" style="">
    <g id="g-10" data-name="Layer 2">
        </g>
  </g>
</svg>