<svg width="261" height="482" viewBox="0 0 261 482" fill="none" xmlns="http://www.w3.org/2000/svg">
<g clip-path="url(#clip0)">
<path d="M131.185 329.505L128.281 335.263C122.371 338.425 111.201 337.822 104.486 336.826C90.1735 334.678 78.9858 321.552 75.3242 308.103C71.8355 295.341 77.4233 284.338 79.8505 272.101C80.3279 269.634 80.617 267.135 80.7152 264.625C86.1558 263.872 91.4116 262.124 96.2205 259.47C103.061 255.657 107.11 250.717 111.332 244.828C114.061 250.726 115.871 257.008 116.699 263.455C118.083 273.419 116.89 283.837 116.395 293.759C115.68 307.679 116.699 322.596 131.185 329.505Z" fill="url(#paint0_linear)"/>
<path d="M111.308 244.828C107.086 250.717 103.037 255.657 96.1967 259.47C91.3877 262.124 86.1319 263.872 80.6914 264.625C81.1864 254.899 79.2601 244.499 76.2962 235.621C72.247 223.402 65.8361 213.199 57.9761 203.169C66.0329 206.355 74.0778 208.127 81.7111 212.441C90.1078 217.214 96.7572 223.36 102.643 230.937C106.048 235.225 108.955 239.884 111.308 244.828V244.828Z" fill="url(#paint1_linear)"/>
<path d="M173.67 271.395C173.504 269.596 173.921 267.792 174.86 266.248C175.799 264.705 177.209 263.504 178.883 262.823C197.092 255.499 205.754 244.555 209.065 237.776C209.559 236.791 210.26 235.924 211.121 235.235C211.981 234.546 212.98 234.05 214.049 233.782C215.118 233.515 216.232 233.481 217.316 233.683C218.399 233.886 219.426 234.32 220.326 234.955V234.955C221.71 235.936 222.734 237.344 223.241 238.962C223.748 240.581 223.71 242.322 223.133 243.917C213.905 269.904 194.931 277.065 183.578 278.972C182.423 279.174 181.239 279.134 180.1 278.856C178.961 278.578 177.893 278.066 176.962 277.354C176.031 276.642 175.258 275.745 174.692 274.719C174.125 273.694 173.777 272.562 173.67 271.395Z" fill="#FF5F54"/>
<path d="M187.69 305.597C187.434 308.804 186.98 311.993 186.33 315.144C184.872 322.07 181.076 328.283 175.578 332.738C170.08 337.193 163.217 339.618 156.143 339.606H148.909C144.108 339.605 139.36 338.614 134.959 336.696C130.558 334.778 126.599 331.973 123.329 328.458C120.059 324.942 117.547 320.79 115.951 316.26C114.355 311.731 113.709 306.921 114.052 302.13C114.29 298.777 114.702 295.251 115.328 291.558C117.493 278.801 122.275 264.112 131.543 248.252L175.56 250.042C175.56 250.042 190.135 275.699 187.69 305.597Z" fill="#FF5F54"/>
<path d="M123.059 320.364L148.703 320L134.766 371.014C134.818 372.024 134.665 373.033 134.315 373.981C133.965 374.93 133.426 375.797 132.73 376.53C132.034 377.263 131.196 377.846 130.268 378.245C129.339 378.643 128.34 378.849 127.329 378.848V378.848C125.582 378.849 123.891 378.235 122.551 377.114C121.211 375.992 120.308 374.435 120 372.715L123.059 320.364Z" fill="#FF5F54"/>
<path d="M155.176 321.009L180.82 320.287L183.301 371.665C183.353 372.674 183.2 373.684 182.85 374.632C182.5 375.58 181.96 376.447 181.265 377.18C180.569 377.913 179.731 378.497 178.803 378.896C177.874 379.294 176.874 379.499 175.864 379.499C174.108 379.511 172.405 378.901 171.055 377.777C169.705 376.654 168.795 375.089 168.487 373.359L155.176 321.009Z" fill="#FF5F54"/>
<path d="M174.454 302.212C174.454 305.034 174.317 307.803 174.055 310.476C173.52 316.035 170.936 321.195 166.806 324.952C162.676 328.708 157.297 330.793 151.715 330.798V330.798C146.135 330.789 140.758 328.702 136.633 324.942C132.507 321.183 129.929 316.022 129.4 310.464C129.137 307.791 129 305.022 129 302.2C129 277.803 139.18 258 151.733 258C164.286 258 174.454 277.803 174.454 302.212Z" fill="#F6F0F4"/>
<path d="M187.69 305.597C185.519 306.611 183.378 307.5 181.303 308.282C162.744 315.126 147.37 312.244 135.98 306.874C128.169 303.161 121.154 297.963 115.328 291.57C117.493 278.813 122.275 264.123 131.543 248.264L175.56 250.054C175.56 250.054 190.135 275.699 187.69 305.597Z" fill="#FDC583"/>
<path d="M103.77 213.853L103.952 213.651C86.0836 171.726 105.758 145.78 105.758 145.78C117.551 163.978 116.752 189.241 115.65 200.613L131.02 183.513C131.204 182.374 132.917 152.146 108.339 139.829C108.362 139.836 72.1792 183.306 103.77 213.853Z" fill="#FF5F54"/>
<path d="M104.677 214.683L116.398 201.652C117.5 190.28 118.298 165.017 106.505 146.819C106.482 146.812 86.8083 172.758 104.677 214.683Z" fill="url(#paint2_linear)"/>
<path d="M165.192 191.464L182.604 206.915C183.321 201.425 189.027 159.471 199.859 138.99C212.474 168.2 205.012 190.77 186.763 209.723C191.11 207.374 216.02 191.745 204.989 147.602L200.832 132.654C200.832 132.654 172.089 154.61 165.192 191.464Z" fill="#FF5F54"/>
<path d="M200.428 135.449C189.302 156.621 183.077 199.799 182.292 205.448L185.803 208.624C185.803 208.624 186.029 208.519 186.439 208.285C205 188.596 212.764 165.316 200.428 135.449Z" fill="url(#paint3_linear)"/>
<path d="M100.765 222.358C136.826 226.761 161.438 217.053 161.438 217.053C194.476 227.065 211.872 225.961 221.038 222.25C223.584 219.036 225.708 215.509 227.359 211.755C227.359 211.755 222.255 214.303 220.048 212.483C220.048 212.483 227.747 209.404 229.351 206.158C229.351 206.158 220.483 210.884 213.601 203.629C213.601 203.629 195.943 159.476 156.876 158.354C156.22 158.354 155.564 158.307 154.908 158.259C151.449 157.984 136.826 157.835 123.647 172.525C123.647 172.525 111.827 184.553 102.715 218.408C102.294 219.826 101.635 221.162 100.765 222.358V222.358Z" fill="#FF5F54"/>
<path d="M86.9174 227.889C86.9174 227.889 95.7494 241.558 130.404 253.097L141.448 256.081C157.097 260.236 173.753 258.052 187.803 250.001L188.167 249.804C188.167 249.804 208.843 238.026 221.014 222.28C211.848 225.991 194.452 227.095 161.414 217.083C161.414 217.083 136.803 226.791 100.741 222.387C98.7133 225.293 94.5925 228.676 86.9174 227.889Z" fill="url(#paint4_linear)"/>
<path d="M152.034 220.096C151.831 222.638 155.015 224.971 159.106 225.299C163.197 225.627 166.716 223.843 166.919 221.302C167.121 218.76 163.937 216.427 159.852 216.093C155.767 215.759 152.242 217.584 152.034 220.096Z" fill="#511812"/>
<path d="M192.407 230.156C192.198 232.698 195.389 235.025 199.474 235.359C203.559 235.693 207.083 233.903 207.286 231.355C207.489 228.807 204.304 226.48 200.219 226.152C196.134 225.824 192.61 227.608 192.407 230.156Z" fill="#FFCDD4"/>
<path d="M112.895 229.631C112.626 232.167 115.727 234.583 119.824 235.001C123.921 235.418 127.47 233.742 127.744 231.206C128.018 228.67 124.917 226.254 120.814 225.836C116.711 225.418 113.169 227.095 112.895 229.631Z" fill="#FFCDD4"/>
<path d="M140.335 221.983C142.782 221.722 144.365 218.609 143.927 215.032C143.49 211.455 141.106 208.775 138.665 209.015C136.224 209.255 134.635 212.389 135.072 215.965C135.51 219.542 137.905 222.243 140.335 221.983Z" fill="#511812"/>
<path d="M176.335 220.984C178.782 220.729 180.365 217.616 179.927 214.033C179.49 210.45 177.106 207.775 174.665 208.015C172.224 208.255 170.635 211.389 171.072 214.972C171.51 218.554 173.888 221.23 176.335 220.984Z" fill="#511812"/>
<path d="M149.589 232.006L149.602 232.033C156.009 239.095 162.555 234.633 162.624 234.582C162.859 234.418 163.019 234.167 163.069 233.884C163.119 233.602 163.054 233.311 162.89 233.076C162.726 232.841 162.475 232.681 162.192 232.631C161.91 232.581 161.619 232.645 161.384 232.809C161.158 232.962 156.283 236.19 151.207 230.58C151.012 230.383 150.75 230.267 150.473 230.257C150.196 230.247 149.925 230.343 149.717 230.526C149.509 230.709 149.378 230.965 149.352 231.241C149.327 231.517 149.408 231.792 149.579 232.011L149.589 232.006Z" fill="#511812"/>
<circle cx="137" cy="216" r="15.5" fill="#F2F1F1" fill-opacity="0.2" stroke="#703632"/>
<circle cx="180" cy="215" r="16" fill="#DDDADA" fill-opacity="0.2"/>
<circle cx="180" cy="215" r="15.5" stroke="black" stroke-opacity="0.55"/>
<path d="M153 217C158.247 214.248 160.839 214.42 165 217" stroke="#703632"/>
<rect x="103" y="286.217" width="55" height="36" rx="2" transform="rotate(-26 103 286.217)" fill="#9088D4"/>
<rect x="103" y="286.106" width="54.9908" height="2.87767" transform="rotate(-26 103 286.106)" fill="#194070"/>
<path d="M129.053 252.525C130.748 253.149 132.197 254.302 133.186 255.814C134.175 257.326 134.652 259.116 134.546 260.92C133.317 280.508 139.466 293.038 144.159 298.944C144.835 299.815 145.316 300.821 145.567 301.894C145.819 302.967 145.836 304.082 145.618 305.162C145.399 306.243 144.95 307.263 144.301 308.154C143.652 309.044 142.818 309.784 141.857 310.323V310.323C140.376 311.15 138.664 311.468 136.985 311.229C135.306 310.99 133.751 310.206 132.56 308.998C113.077 289.482 114.782 269.273 117.949 258.205C118.264 257.076 118.809 256.024 119.551 255.116C120.292 254.208 121.214 253.464 122.257 252.93C123.3 252.396 124.443 252.085 125.613 252.015C126.782 251.945 127.954 252.119 129.053 252.525Z" fill="#FF5F54"/>
</g>
<path d="M261 447.511H34V482H261V447.511Z" fill="#E2E2E2"/>
<path d="M75.8313 454.332H42.2211V475.568H75.8313V454.332Z" fill="#CCCCCC"/>
<path d="M55.7333 414.814H226.054C229.982 414.814 233.75 416.376 236.528 419.156C239.306 421.937 240.867 425.708 240.867 429.64V429.937C240.867 433.869 239.306 437.64 236.528 440.42C233.75 443.201 229.982 444.763 226.054 444.763H55.7333V414.814Z" fill="#E2E2E2"/>
<path d="M249.997 379H66.8488V393.129H249.997V379Z" fill="#CCCCCC"/>
<path d="M253.33 393.168H52.6552V412.047H253.33V393.168Z" fill="#E2E2E2"/>
<path d="M236.991 389.942C239.132 389.942 240.867 388.205 240.867 386.063C240.867 383.921 239.132 382.185 236.991 382.185C234.851 382.185 233.116 383.921 233.116 386.063C233.116 388.205 234.851 389.942 236.991 389.942Z" fill="#E2E2E2"/>
<path d="M79.9315 402.609H224.916" stroke="black" stroke-width="2" stroke-miterlimit="10" stroke-linecap="round"/>
<path d="M77.9466 382.244V389.885" stroke="black" stroke-width="2" stroke-miterlimit="10" stroke-linecap="round"/>
<path d="M83.6998 382.244V389.885" stroke="black" stroke-width="2" stroke-miterlimit="10" stroke-linecap="round"/>
<path d="M89.4531 382.244V389.885" stroke="black" stroke-width="2" stroke-miterlimit="10" stroke-linecap="round"/>
<path d="M60.2986 396.003H55.7333V409.213H60.2986V396.003Z" fill="#CCCCCC"/>
<path d="M66.8488 396.003H62.2835V409.213H66.8488V396.003Z" fill="#CCCCCC"/>
<path d="M46.1465 414.814H224.614C233.552 414.814 240.866 421.548 240.866 429.779C240.866 438.011 233.552 444.745 224.614 444.745H46.1465" stroke="#CCCCCC" stroke-width="19.81" stroke-miterlimit="10"/>
<path d="M182.679 457.911L178.022 449.842L173.368 457.911V425.809H182.679V457.911Z" fill="#AB8FE2"/>
<path d="M86.3336 464.95H241.175" stroke="#CCCCCC" stroke-width="19.81" stroke-miterlimit="10"/>
<path d="M78.4558 78.4558C73.4212 83.4905 67.0066 86.9192 60.0233 88.3083C53.0399 89.6973 45.8015 88.9844 39.2234 86.2597C32.6453 83.5349 27.0228 78.9207 23.0671 73.0005C19.1114 67.0804 17 60.1201 17 53C17 45.8799 19.1114 38.9196 23.0671 32.9995C27.0228 27.0793 32.6453 22.4651 39.2234 19.7403C45.8015 17.0156 53.0399 16.3027 60.0232 17.6917C67.0066 19.0808 73.4211 22.5095 78.4558 27.5442L53 53L78.4558 78.4558Z" fill="#9088D4" fill-opacity="0.24"/>
<path d="M52.7925 75C64.8281 75 74.5849 65.1503 74.5849 53C74.5849 40.8497 64.8281 31 52.7925 31C40.7568 31 31 40.8497 31 53C31 65.1503 40.7568 75 52.7925 75Z" fill="#9088D4"/>
<g clip-path="url(#clip1)">
<path d="M51 75C51 69.4647 64.6978 68.2916 70.1118 68.2916C81.0912 68.2916 81.8182 61.9894 90.9349 61.9894C98.9499 61.9894 103.027 68.4966 110.49 68.4966C126.505 68.4966 130.071 50 145.65 50C161.502 50 160.692 69.309 175.443 69.309C182.943 69.309 228 70.7289 228 75.0038L51 75Z" fill="white"/>
</g>
<defs>
<linearGradient id="paint0_linear" x1="83" y1="267" x2="134" y2="330" gradientUnits="userSpaceOnUse">
<stop stop-color="#F6625A"/>
<stop offset="1" stop-color="#D95149"/>
</linearGradient>
<linearGradient id="paint1_linear" x1="65.9633" y1="215.019" x2="109.346" y2="217.38" gradientUnits="userSpaceOnUse">
<stop stop-color="#FFECEF"/>
<stop offset="1" stop-color="white"/>
</linearGradient>
<linearGradient id="paint2_linear" x1="104.592" y1="159.457" x2="125.617" y2="166.077" gradientUnits="userSpaceOnUse">
<stop stop-color="#FFECEF"/>
<stop offset="1" stop-color="white"/>
</linearGradient>
<linearGradient id="paint3_linear" x1="199.701" y1="149.223" x2="215.416" y2="156.232" gradientUnits="userSpaceOnUse">
<stop stop-color="#FFECEF"/>
<stop offset="1" stop-color="white"/>
</linearGradient>
<linearGradient id="paint4_linear" x1="107" y1="225" x2="212" y2="246.5" gradientUnits="userSpaceOnUse">
<stop stop-color="#FFECEF"/>
<stop offset="1" stop-color="white"/>
</linearGradient>
<clipPath id="clip0">
<rect width="184" height="263" fill="white" transform="translate(58 127)"/>
</clipPath>
<clipPath id="clip1">
<rect width="177" height="25" fill="white" transform="translate(51 50)"/>
</clipPath>
</defs>
</svg>
