<svg width="375" height="812" viewBox="0 0 375 812" fill="none" xmlns="http://www.w3.org/2000/svg">
<g clip-path="url(#clip0)">
<rect width="375" height="812" fill="#F5EDE2" fill-opacity="0.5"/>
<rect width="375" height="812" fill="url(#paint0_linear)"/>
<path d="M0 606.397C0 507.609 89.2232 432.787 186.5 450C284.885 432.776 375 508.486 375 608.367V812H0V606.397Z" fill="white"/>
<path opacity="0.63" d="M184 476C232.049 476 271 469.06 271 460.5C271 451.94 232.049 445 184 445C135.951 445 97 451.94 97 460.5C97 469.06 135.951 476 184 476Z" fill="#F4E9DA"/>
<path d="M-1.95976 506.892C-29.6754 520.385 -46 536.942 -46 554.836C-46 600.214 58.9892 637 188.5 637C318.011 637 423 600.214 423 554.836C423 536.097 405.097 518.823 374.956 505" stroke="#ECC19A"/>
<g clip-path="url(#clip1)">
<path d="M186 164C186 158.995 207.877 151.163 219.841 151.163C243.441 151.163 236.074 157.582 250.919 157.582C267.836 157.582 271.701 129 297.442 129C325.577 129 321.161 156.957 338.427 156.957C345.863 156.957 349.588 154.239 360.157 154.239C366.289 154.239 373 159.011 373 164.022L186 164Z" fill="white"/>
</g>
<path d="M163.584 207.859C163.584 207.859 162.978 207.843 162.467 208.111C162.034 208.338 161.543 209.276 161.673 210.488C161.674 210.501 161.657 210.504 161.654 210.492C161.354 209.293 160.537 208.517 159.788 208.525C159.477 208.529 159.077 208.662 158.766 208.923C156.535 210.793 160.728 213.272 161.967 213.94L161.968 213.94C162.097 214.02 162.227 214.1 162.357 214.18C162.361 214.183 162.367 214.182 162.37 214.177L162.904 213.445C163.935 211.938 166.304 208.072 163.584 207.859Z" fill="#A3C6FF"/>
<path d="M196.699 244.771C197.982 245.04 199.264 245.31 200.546 245.579" stroke="#FFDFBA" stroke-width="4" stroke-miterlimit="10" stroke-linecap="round"/>
<path d="M196.766 244.746C197.725 244.127 198.685 243.509 199.645 242.89" stroke="#FFDFBA" stroke-width="4" stroke-miterlimit="10" stroke-linecap="round"/>
<path d="M196.398 247.085C196.521 246.306 196.644 245.526 196.767 244.746" stroke="#FFDFBA" stroke-width="4" stroke-miterlimit="10" stroke-linecap="round"/>
<path d="M181.727 235.707L181.501 244.334" stroke="#FFDFBA" stroke-width="4" stroke-miterlimit="10" stroke-linecap="round"/>
<path d="M181.501 244.334C182.603 245.044 183.705 245.754 184.807 246.465" stroke="#FFDFBA" stroke-width="4" stroke-miterlimit="10" stroke-linecap="round"/>
<path d="M181.573 244.335C182.689 244.1 183.806 243.865 184.922 243.63" stroke="#FFDFBA" stroke-width="4" stroke-miterlimit="10" stroke-linecap="round"/>
<path d="M180.396 246.39C180.789 245.705 181.18 245.021 181.572 244.335" stroke="#FFDFBA" stroke-width="4" stroke-miterlimit="10" stroke-linecap="round"/>
<path d="M192.241 236.006L196.847 245.183" stroke="#FFDFBA" stroke-width="4" stroke-miterlimit="10" stroke-linecap="round"/>
<path d="M208.804 222.944C208.869 220.447 208.227 218.098 207.061 216.085C206.154 214.52 205.612 212.774 205.516 210.977C205.509 210.841 205.504 210.7 205.502 210.554C205.5 210.407 205.501 210.265 205.504 210.128L205.549 208.422L185.9 207.908L185.827 210.666C185.817 210.73 185.804 210.791 185.793 210.853C185.391 213.039 184.428 214.215 183.881 214.762C181.375 217.266 177.361 216.891 174.354 216.61C171.965 216.387 169.952 215.809 168.869 215.492C165.379 214.473 163.877 213.459 162.904 213.445C162.724 213.692 162.544 213.938 162.365 214.185C162.232 214.103 162.099 214.022 161.967 213.94C161.147 215.191 161.734 218.668 162.879 221.554C165.824 228.971 172.543 232.779 174.488 233.736C184.147 238.49 194.181 236.568 198.992 235.228C199.311 235.148 199.628 235.058 199.937 234.955C199.94 234.954 199.942 234.953 199.945 234.952C204.975 233.259 208.657 228.564 208.804 222.944Z" fill="#A3C6FF"/>
<path d="M185.858 210.117C189.113 211.365 194.648 212.894 201.148 211.715C202.755 211.424 204.209 211.005 205.502 210.533C205.521 210.854 205.54 211.176 205.558 211.497C203.485 212.227 200.239 213.089 196.207 213.045C191.565 212.995 187.933 211.766 185.793 210.853C185.814 210.608 185.836 210.363 185.858 210.117Z" fill="white"/>
<path d="M190.659 228.747C190.659 228.747 192.864 230.2 193.416 230.275C193.968 230.35 194.936 231.321 198.947 228.147C198.88 228.135 198.813 228.124 198.746 228.112C198.058 228.553 196.473 229.435 194.29 229.479C192.713 229.512 191.474 229.093 190.764 228.789C190.729 228.776 190.694 228.761 190.659 228.747Z" fill="#799BD1"/>
<path d="M206.139 185.881C206.281 180.448 201.998 175.927 196.572 175.785C191.146 175.643 186.632 179.933 186.49 185.367L185.877 208.766L205.526 209.281L206.139 185.881Z" fill="#A3C6FF"/>
<path d="M205.933 193.746L209.92 195.255C210.702 195.551 210.65 196.455 209.838 196.677L205.828 197.775" fill="#FFDFBA"/>
<path d="M204.306 190.376C204.228 193.341 201.764 195.683 198.804 195.605C195.842 195.528 193.505 193.06 193.582 190.095C193.66 187.13 196.123 184.789 199.085 184.866C202.045 184.944 204.383 187.411 204.306 190.376Z" fill="white"/>
<path d="M202.735 190.335C202.68 192.432 200.938 194.087 198.845 194.032C196.751 193.978 195.098 192.233 195.153 190.137C195.208 188.04 196.949 186.384 199.044 186.439C201.137 186.494 202.79 188.238 202.735 190.335Z" fill="#1D1D1B"/>
<path d="M204.351 188.648C203.412 188.149 201.579 187.333 199.13 187.247C196.562 187.157 194.599 187.914 193.628 188.367C193.637 188.01 193.722 186.109 195.297 184.612C196.293 183.666 197.649 183.1 199.13 183.139L199.13 183.139C202.091 183.216 204.428 185.683 204.351 188.648Z" fill="#629EFF"/>
<path d="M193.436 195.69L204.159 195.971C204.081 198.936 201.618 201.278 198.657 201.2L198.656 201.2C195.695 201.123 193.358 198.656 193.436 195.69Z" fill="#A3C6FF"/>
<path d="M176.995 218.969C179.741 214.988 203.459 223.11 200.871 225.975C193.838 237.479 174.249 222.95 176.995 218.969Z" fill="#799BD1" fill-opacity="0.52" stroke="#799BD1" stroke-opacity="0.71"/>
<g clip-path="url(#clip2)">
<path d="M4 138C4 130.693 25.5915 129.145 34.1254 129.145C51.432 129.145 52.5778 120.826 66.9482 120.826C79.582 120.826 86.0093 129.415 97.7718 129.415C123.016 129.415 128.637 105 153.195 105C178.182 105 176.905 130.488 200.155 130.488C211.977 130.488 283 132.362 283 138.005L4 138Z" fill="white"/>
</g>
<path d="M186.456 118.456C181.421 123.491 175.007 126.919 168.023 128.308C161.04 129.697 153.802 128.984 147.223 126.26C140.645 123.535 135.023 118.921 131.067 113.001C127.111 107.08 125 100.12 125 93C125 85.8799 127.111 78.9196 131.067 72.9995C135.023 67.0793 140.645 62.4651 147.223 59.7403C153.802 57.0156 161.04 56.3027 168.023 57.6917C175.007 59.0808 181.421 62.5095 186.456 67.5442L161 93L186.456 118.456Z" fill="#E0D5CF"/>
<path d="M160.792 115C172.828 115 182.585 105.15 182.585 93C182.585 80.8497 172.828 71 160.792 71C148.757 71 139 80.8497 139 93C139 105.15 148.757 115 160.792 115Z" fill="#9088D4"/>
<path d="M197.56 98C197.333 98 197.147 97.9333 197 97.8C196.867 97.6533 196.8 97.46 196.8 97.22V87.84C196.8 87.6 196.867 87.4133 197 87.28C197.147 87.1333 197.333 87.06 197.56 87.06C197.787 87.06 197.967 87.1333 198.1 87.28C198.247 87.4133 198.32 87.6 198.32 87.84V91.8H205.38V87.84C205.38 87.6 205.453 87.4133 205.6 87.28C205.747 87.1333 205.933 87.06 206.16 87.06C206.387 87.06 206.567 87.1333 206.7 87.28C206.833 87.4133 206.9 87.6 206.9 87.84V97.22C206.9 97.46 206.833 97.6533 206.7 97.8C206.567 97.9333 206.387 98 206.16 98C205.933 98 205.747 97.9333 205.6 97.8C205.453 97.6533 205.38 97.46 205.38 97.22V93.18H198.32V97.22C198.32 97.46 198.247 97.6533 198.1 97.8C197.967 97.9333 197.787 98 197.56 98ZM216.271 102.78C215.697 102.793 215.124 102.633 214.551 102.3C214.337 102.167 214.204 101.993 214.151 101.78C214.084 101.58 214.124 101.387 214.271 101.2C214.404 101.027 214.564 100.933 214.751 100.92C214.951 100.92 215.157 100.973 215.371 101.08C215.517 101.173 215.664 101.24 215.811 101.28C215.957 101.32 216.124 101.34 216.311 101.34C217.231 101.313 218.024 100.527 218.691 98.98L219.451 97.24L215.011 88.08C214.917 87.88 214.904 87.6933 214.971 87.52C215.037 87.3467 215.171 87.2133 215.371 87.12C215.797 86.92 216.117 87.0333 216.331 87.46L220.191 95.54L223.671 87.48C223.751 87.28 223.884 87.1467 224.071 87.08C224.271 87 224.471 87.0067 224.671 87.1C224.857 87.18 224.977 87.3133 225.031 87.5C225.097 87.6867 225.084 87.8867 224.991 88.1L219.991 99.58C219.564 100.54 219.024 101.313 218.371 101.9C217.731 102.487 217.031 102.78 216.271 102.78ZM234.182 102.68C233.942 102.68 233.748 102.607 233.602 102.46C233.468 102.327 233.402 102.14 233.402 101.9V92.46C233.415 91.42 233.662 90.4867 234.142 89.66C234.635 88.82 235.295 88.16 236.122 87.68C236.962 87.2 237.902 86.96 238.942 86.96C240.008 86.96 240.962 87.2067 241.802 87.7C242.642 88.18 243.302 88.84 243.782 89.68C244.275 90.52 244.522 91.4733 244.522 92.54C244.522 93.5933 244.282 94.54 243.802 95.38C243.335 96.22 242.695 96.8867 241.882 97.38C241.068 97.86 240.148 98.1 239.122 98.1C238.228 98.1 237.415 97.9133 236.682 97.54C235.962 97.1533 235.382 96.6467 234.942 96.02V101.9C234.942 102.14 234.868 102.327 234.722 102.46C234.588 102.607 234.408 102.68 234.182 102.68ZM238.942 96.7C239.715 96.7 240.408 96.52 241.022 96.16C241.635 95.8 242.115 95.3067 242.462 94.68C242.822 94.04 243.002 93.3267 243.002 92.54C243.002 91.74 242.822 91.0267 242.462 90.4C242.115 89.7733 241.635 89.28 241.022 88.92C240.408 88.5467 239.715 88.36 238.942 88.36C238.182 88.36 237.495 88.5467 236.882 88.92C236.268 89.28 235.788 89.7733 235.442 90.4C235.095 91.0267 234.922 91.74 234.922 92.54C234.922 93.3267 235.095 94.04 235.442 94.68C235.788 95.3067 236.268 95.8 236.882 96.16C237.495 96.52 238.182 96.7 238.942 96.7Z" fill="#9088D4"/>
<g clip-path="url(#clip3)">
<path d="M169.185 417.505L166.281 423.263C160.371 426.425 149.201 425.822 142.486 424.826C128.173 422.678 116.986 409.552 113.324 396.103C109.836 383.341 115.423 372.338 117.851 360.101C118.328 357.634 118.617 355.135 118.715 352.625C124.156 351.872 129.412 350.124 134.221 347.47C141.061 343.657 145.11 338.717 149.332 332.828C152.061 338.726 153.871 345.008 154.699 351.455C156.083 361.419 154.89 371.837 154.395 381.759C153.68 395.679 154.699 410.596 169.185 417.505Z" fill="url(#paint1_linear)"/>
<path d="M149.308 332.828C145.086 338.717 141.037 343.657 134.197 347.47C129.388 350.124 124.132 351.872 118.691 352.625C119.186 342.899 117.26 332.499 114.296 323.621C110.247 311.402 103.836 301.199 95.9761 291.169C104.033 294.355 112.078 296.127 119.711 300.441C128.108 305.214 134.757 311.36 140.643 318.937C144.048 323.225 146.954 327.884 149.308 332.828V332.828Z" fill="url(#paint2_linear)"/>
<path d="M225.69 393.597C225.434 396.804 224.98 399.993 224.33 403.144C222.872 410.07 219.076 416.283 213.578 420.738C208.08 425.193 201.217 427.618 194.142 427.606H186.909C182.108 427.605 177.36 426.614 172.959 424.696C168.558 422.778 164.599 419.973 161.329 416.458C158.059 412.942 155.547 408.79 153.951 404.26C152.355 399.731 151.708 394.921 152.052 390.13C152.29 386.777 152.702 383.251 153.328 379.558C155.493 366.801 160.275 352.112 169.543 336.252L213.56 338.042C213.56 338.042 228.135 363.699 225.69 393.597Z" fill="#FF5F54"/>
<path d="M215.188 341.497L209.594 357.201C228.242 371.193 233.323 384.051 234.343 392.308C234.487 393.402 234.865 394.451 235.451 395.384C236.038 396.318 236.819 397.114 237.742 397.717C238.664 398.321 239.706 398.717 240.796 398.881C241.886 399.044 242.999 398.969 244.057 398.663V398.663C245.685 398.185 247.112 397.186 248.118 395.82C249.124 394.453 249.654 392.794 249.627 391.097C249.24 350.22 215.188 341.497 215.188 341.497Z" fill="#FF5F54"/>
<path d="M166.293 407.929L191.936 407.565L177.999 458.579C178.052 459.588 177.898 460.598 177.548 461.546C177.198 462.495 176.659 463.362 175.963 464.095C175.267 464.828 174.43 465.411 173.501 465.81C172.573 466.208 171.573 466.413 170.563 466.413V466.413C168.816 466.414 167.124 465.8 165.784 464.678C164.444 463.557 163.541 462 163.233 460.279L166.293 407.929Z" fill="#FF5F54"/>
<path d="M193.176 409.009L218.82 408.287L221.301 459.665C221.353 460.674 221.2 461.684 220.85 462.632C220.5 463.58 219.96 464.447 219.265 465.18C218.569 465.913 217.731 466.497 216.803 466.896C215.874 467.294 214.874 467.499 213.864 467.499C212.108 467.511 210.405 466.901 209.055 465.777C207.705 464.654 206.795 463.089 206.487 461.359L193.176 409.009Z" fill="#FF5F54"/>
<path d="M219.338 390.906C219.338 393.728 219.201 396.497 218.939 399.17C218.404 404.728 215.82 409.889 211.69 413.646C207.561 417.402 202.181 419.486 196.599 419.492V419.492C191.019 419.483 185.643 417.395 181.517 413.636C177.391 409.877 174.813 404.716 174.284 399.158C174.021 396.485 173.884 393.716 173.884 390.894C173.884 366.497 184.064 346.694 196.617 346.694C209.171 346.694 219.338 366.497 219.338 390.906Z" fill="#F6F0F4"/>
<path d="M225.69 393.597C223.519 394.611 221.378 395.5 219.303 396.282C200.744 403.126 185.37 400.244 173.98 394.874C166.169 391.161 159.154 385.963 153.328 379.57C155.493 366.813 160.275 352.123 169.543 336.264L213.56 338.054C213.56 338.054 228.135 363.699 225.69 393.597Z" fill="#FDC583"/>
<path d="M218.832 388.889C209.952 393.382 195.401 391.145 186.092 389.397C185.412 389.271 185.12 390.315 185.805 390.441C195.872 392.326 209.856 394.617 219.374 389.844C220 389.51 219.452 388.579 218.832 388.889Z" fill="#511812"/>
<path d="M237.921 369.385C237.921 369.385 231.427 362.887 209.23 365.327C209.23 365.327 193.802 368.573 188.394 364.242L159.434 397.547L160.788 401.342L229.799 404.033L264.984 366.938V363.46C264.984 363.46 263.791 363.734 262.175 364.057C258.58 364.779 254.928 365.178 251.261 365.25C247.725 365.327 241.964 366.043 237.921 369.385Z" fill="#F6F0F4"/>
<path d="M159.041 404.074L188.394 368.86L234.283 373.138H244.117L266.636 366.151L229.155 406.64L212.91 407.499H200.935L159.041 404.074Z" fill="#9088D4"/>
<path d="M244.117 373.138L212.91 407.499H200.225L233.43 373.138H244.117Z" fill="#194070"/>
<path d="M171.022 341.939C172.716 342.563 174.165 343.716 175.154 345.228C176.144 346.74 176.62 348.53 176.514 350.334C175.286 369.922 181.434 382.452 186.127 388.358C186.804 389.229 187.284 390.235 187.536 391.308C187.788 392.381 187.805 393.496 187.586 394.576C187.368 395.656 186.919 396.677 186.27 397.568C185.62 398.458 184.787 399.198 183.825 399.737V399.737C182.344 400.564 180.633 400.882 178.954 400.643C177.274 400.404 175.72 399.62 174.528 398.412C155.045 378.895 156.751 358.687 159.917 347.619C160.232 346.489 160.778 345.438 161.519 344.53C162.261 343.622 163.182 342.878 164.225 342.344C165.269 341.81 166.411 341.499 167.581 341.429C168.751 341.359 169.922 341.533 171.022 341.939Z" fill="#FF5F54"/>
<path d="M150.585 304.457L150.704 304.212C121.971 268.836 133.732 238.472 133.732 238.472C150.084 252.715 156.28 277.219 158.355 288.454L168.416 267.78C168.279 266.635 161.593 237.106 134.572 232.04C134.596 232.04 111.798 283.8 150.585 304.457Z" fill="#FF5F54"/>
<path d="M150.704 304.212L158.379 288.454C156.304 277.219 150.108 252.715 133.755 238.472C133.732 238.472 121.971 268.836 150.704 304.212Z" fill="url(#paint3_linear)"/>
<path d="M212.093 285.298L234.158 292.959C232.673 287.452 221.533 245.274 223.501 221.438C246.527 244.111 248.477 268.574 239.084 293.95C242.167 289.964 258.99 265.059 231.588 227.554L221.921 215.024C221.921 215.024 204.042 247.488 212.093 285.298Z" fill="#FF5F54"/>
<path d="M223.477 221.456C221.509 245.292 232.649 287.47 234.134 292.977L238.607 294.528C238.607 294.528 238.774 294.343 239.06 293.967C248.453 268.592 246.503 244.129 223.477 221.456Z" fill="url(#paint4_linear)"/>
<path d="M138.765 310.358C174.826 314.761 199.438 305.053 199.438 305.053C232.476 315.065 249.872 313.961 259.038 310.25C261.584 307.036 263.708 303.509 265.359 299.755C265.359 299.755 260.255 302.303 258.048 300.483C258.048 300.483 265.747 297.404 267.351 294.158C267.351 294.158 258.483 298.884 251.601 291.629C251.601 291.629 233.943 247.476 194.876 246.354C194.22 246.354 193.564 246.307 192.908 246.259C189.449 245.984 174.826 245.835 161.647 260.525C161.647 260.525 149.827 272.553 140.715 306.408C140.294 307.826 139.635 309.162 138.765 310.358V310.358Z" fill="#FF5F54"/>
<path d="M124.917 315.889C124.917 315.889 133.749 329.558 168.404 341.097L179.448 344.081C195.097 348.236 211.753 346.052 225.803 338.001L226.167 337.804C226.167 337.804 246.843 326.026 259.014 310.28C249.848 313.991 232.452 315.095 199.414 305.083C199.414 305.083 174.803 314.791 138.741 310.387C136.713 313.293 132.592 316.676 124.917 315.889Z" fill="url(#paint5_linear)"/>
<path d="M190.034 308.096C189.831 310.638 193.015 312.971 197.106 313.299C201.197 313.627 204.716 311.843 204.919 309.302C205.121 306.76 201.937 304.427 197.852 304.093C193.767 303.759 190.242 305.584 190.034 308.096Z" fill="#511812"/>
<path d="M230.407 318.156C230.198 320.698 233.389 323.025 237.474 323.359C241.559 323.693 245.083 321.903 245.286 319.355C245.489 316.807 242.304 314.48 238.219 314.152C234.134 313.824 230.61 315.608 230.407 318.156Z" fill="#FFCDD4"/>
<path d="M150.895 317.631C150.626 320.167 153.727 322.583 157.824 323.001C161.921 323.418 165.47 321.742 165.744 319.206C166.018 316.67 162.917 314.254 158.814 313.836C154.711 313.418 151.169 315.095 150.895 317.631Z" fill="#FFCDD4"/>
<path d="M186.044 315.35V315.379C189.026 324.437 196.821 323.023 196.904 323.005C197.186 322.95 197.434 322.786 197.594 322.548C197.755 322.31 197.814 322.018 197.76 321.737C197.705 321.455 197.541 321.207 197.303 321.046C197.066 320.885 196.774 320.826 196.493 320.881C196.224 320.928 190.457 321.895 188.102 314.705C188.005 314.445 187.812 314.233 187.563 314.111C187.314 313.989 187.028 313.967 186.763 314.049C186.498 314.131 186.275 314.312 186.139 314.554C186.003 314.796 185.965 315.08 186.032 315.35H186.044Z" fill="#511812"/>
<path d="M169.335 306.983C171.782 306.722 173.365 303.609 172.927 300.032C172.49 296.455 170.106 293.775 167.665 294.015C165.224 294.255 163.635 297.389 164.072 300.965C164.51 304.542 166.905 307.243 169.335 306.983Z" fill="#511812"/>
<path d="M222.335 305.984C224.782 305.729 226.365 302.616 225.927 299.033C225.49 295.45 223.106 292.775 220.665 293.015C218.224 293.255 216.635 296.389 217.072 299.972C217.51 303.554 219.888 306.23 222.335 305.984Z" fill="#511812"/>
</g>
</g>
<defs>
<linearGradient id="paint0_linear" x1="187.5" y1="0" x2="187.5" y2="812" gradientUnits="userSpaceOnUse">

<stop offset="1" stop-color="#F5EDE2"/>
</linearGradient>
<linearGradient id="paint1_linear" x1="121" y1="355" x2="172" y2="418" gradientUnits="userSpaceOnUse">
<stop stop-color="#F6625A"/>
<stop offset="1" stop-color="#D95149"/>
</linearGradient>
<linearGradient id="paint2_linear" x1="103.963" y1="303.019" x2="147.346" y2="305.38" gradientUnits="userSpaceOnUse">
<stop stop-color="#FFECEF"/>
<stop offset="1" stop-color="white"/>
</linearGradient>
<linearGradient id="paint3_linear" x1="135.4" y1="251.149" x2="157.435" y2="251.717" gradientUnits="userSpaceOnUse">
<stop stop-color="#FFECEF"/>
<stop offset="1" stop-color="white"/>
</linearGradient>
<linearGradient id="paint4_linear" x1="226.404" y1="235.546" x2="243.609" y2="235.857" gradientUnits="userSpaceOnUse">
<stop stop-color="#FFECEF"/>
<stop offset="1" stop-color="white"/>
</linearGradient>
<linearGradient id="paint5_linear" x1="145" y1="313" x2="250" y2="334.5" gradientUnits="userSpaceOnUse">
<stop stop-color="#FFECEF"/>
<stop offset="1" stop-color="white"/>
</linearGradient>
<clipPath id="clip0">
<rect width="375" height="812" fill="white"/>
</clipPath>
<clipPath id="clip1">
<rect width="187" height="35" fill="white" transform="translate(186 129)"/>
</clipPath>
<clipPath id="clip2">
<rect width="279" height="33" fill="white" transform="translate(4 105)"/>
</clipPath>
<clipPath id="clip3">
<rect width="184" height="263" fill="white" transform="translate(96 215)"/>
</clipPath>
</defs>
</svg>
