<svg width="141" height="106" viewBox="0 0 141 106" fill="none" xmlns="http://www.w3.org/2000/svg">
<path d="M78.4558 78.4558C73.4212 83.4905 67.0066 86.9192 60.0233 88.3083C53.0399 89.6973 45.8015 88.9844 39.2234 86.2597C32.6453 83.5349 27.0228 78.9207 23.0671 73.0005C19.1114 67.0804 17 60.1201 17 53C17 45.8799 19.1114 38.9196 23.0671 32.9995C27.0228 27.0793 32.6453 22.4651 39.2234 19.7403C45.8015 17.0156 53.0399 16.3027 60.0232 17.6917C67.0066 19.0808 73.4211 22.5095 78.4558 27.5442L53 53L78.4558 78.4558Z" fill="#E4DEEC"/>
<path d="M52.7925 75C64.8281 75 74.5849 65.1503 74.5849 53C74.5849 40.8497 64.8281 31 52.7925 31C40.7568 31 31 40.8497 31 53C31 65.1503 40.7568 75 52.7925 75Z" fill="#9088D4"/>
<path d="M89.56 58C89.3333 58 89.1467 57.9333 89 57.8C88.8667 57.6533 88.8 57.46 88.8 57.22V47.84C88.8 47.6 88.8667 47.4133 89 47.28C89.1467 47.1333 89.3333 47.06 89.56 47.06C89.7867 47.06 89.9667 47.1333 90.1 47.28C90.2467 47.4133 90.32 47.6 90.32 47.84V51.8H97.38V47.84C97.38 47.6 97.4533 47.4133 97.6 47.28C97.7467 47.1333 97.9333 47.06 98.16 47.06C98.3867 47.06 98.5667 47.1333 98.7 47.28C98.8333 47.4133 98.9 47.6 98.9 47.84V57.22C98.9 57.46 98.8333 57.6533 98.7 57.8C98.5667 57.9333 98.3867 58 98.16 58C97.9333 58 97.7467 57.9333 97.6 57.8C97.4533 57.6533 97.38 57.46 97.38 57.22V53.18H90.32V57.22C90.32 57.46 90.2467 57.6533 90.1 57.8C89.9667 57.9333 89.7867 58 89.56 58ZM108.271 62.78C107.697 62.7933 107.124 62.6333 106.551 62.3C106.337 62.1667 106.204 61.9933 106.151 61.78C106.084 61.58 106.124 61.3867 106.271 61.2C106.404 61.0267 106.564 60.9333 106.751 60.92C106.951 60.92 107.157 60.9733 107.371 61.08C107.517 61.1733 107.664 61.24 107.811 61.28C107.957 61.32 108.124 61.34 108.311 61.34C109.231 61.3133 110.024 60.5267 110.691 58.98L111.451 57.24L107.011 48.08C106.917 47.88 106.904 47.6933 106.971 47.52C107.037 47.3467 107.171 47.2133 107.371 47.12C107.797 46.92 108.117 47.0333 108.331 47.46L112.191 55.54L115.671 47.48C115.751 47.28 115.884 47.1467 116.071 47.08C116.271 47 116.471 47.0067 116.671 47.1C116.857 47.18 116.977 47.3133 117.031 47.5C117.097 47.6867 117.084 47.8867 116.991 48.1L111.991 59.58C111.564 60.54 111.024 61.3133 110.371 61.9C109.731 62.4867 109.031 62.78 108.271 62.78ZM126.182 62.68C125.942 62.68 125.748 62.6067 125.602 62.46C125.468 62.3267 125.402 62.14 125.402 61.9V52.46C125.415 51.42 125.662 50.4867 126.142 49.66C126.635 48.82 127.295 48.16 128.122 47.68C128.962 47.2 129.902 46.96 130.942 46.96C132.008 46.96 132.962 47.2067 133.802 47.7C134.642 48.18 135.302 48.84 135.782 49.68C136.275 50.52 136.522 51.4733 136.522 52.54C136.522 53.5933 136.282 54.54 135.802 55.38C135.335 56.22 134.695 56.8867 133.882 57.38C133.068 57.86 132.148 58.1 131.122 58.1C130.228 58.1 129.415 57.9133 128.682 57.54C127.962 57.1533 127.382 56.6467 126.942 56.02V61.9C126.942 62.14 126.868 62.3267 126.722 62.46C126.588 62.6067 126.408 62.68 126.182 62.68ZM130.942 56.7C131.715 56.7 132.408 56.52 133.022 56.16C133.635 55.8 134.115 55.3067 134.462 54.68C134.822 54.04 135.002 53.3267 135.002 52.54C135.002 51.74 134.822 51.0267 134.462 50.4C134.115 49.7733 133.635 49.28 133.022 48.92C132.408 48.5467 131.715 48.36 130.942 48.36C130.182 48.36 129.495 48.5467 128.882 48.92C128.268 49.28 127.788 49.7733 127.442 50.4C127.095 51.0267 126.922 51.74 126.922 52.54C126.922 53.3267 127.095 54.04 127.442 54.68C127.788 55.3067 128.268 55.8 128.882 56.16C129.495 56.52 130.182 56.7 130.942 56.7Z" fill="#9088D4"/>
</svg>
