<svg xmlns="http://www.w3.org/2000/svg" viewBox="0 0 320 299" width="320" height="299" preserveAspectRatio="xMidYMid meet" style="width: 100%; height: 100%; transform: translate3d(0px, 0px, 0px);"><defs><clipPath id="__lottie_element_18"><rect width="320" height="299" x="0" y="0"></rect></clipPath></defs><g clip-path="url(#__lottie_element_18)"><g transform="matrix(1,0,0,1,19.569488525390625,-40.7779541015625)" opacity="1" style="display: block;"><g opacity="1" transform="matrix(1,0,0,1,35.590999603271484,195.09100341796875)"><path fill="rgb(163,198,255)" fill-opacity="1" d=" M7.198999881744385,-10.758999824523926 C7.198999881744385,-10.758999824523926 7.198999881744385,-10.758999824523926 7.198999881744385,-10.758999824523926 C7.198999881744385,-10.758999824523926 5.14300012588501,-10.758999824523926 3.434000015258789,-9.805999755859375 C1.9869999885559082,-8.99899959564209 0.40700000524520874,-5.78000020980835 0.953000009059906,-1.687000036239624 C0.9580000042915344,-1.6460000276565552 0.902999997138977,-1.6339999437332153 0.890999972820282,-1.6729999780654907 C-0.2329999953508377,-5.704999923706055 -3.069999933242798,-8.260000228881836 -5.611000061035156,-8.166000366210938 C-6.664999961853027,-8.126999855041504 -8.006999969482422,-7.638999938964844 -9.039999961853027,-6.7270002365112305 C-16.437999725341797,-0.19900000095367432 -2.000999927520752,7.821000099182129 2.257999897003174,9.970999717712402 C2.257999897003174,9.970999717712402 2.259999990463257,9.970999717712402 2.259999990463257,9.970999717712402 C2.7070000171661377,10.230999946594238 3.1530001163482666,10.489999771118164 3.5999999046325684,10.74899959564209 C3.615999937057495,10.758000373840332 3.634999990463257,10.753999710083008 3.6449999809265137,10.73900032043457 C3.6449999809265137,10.73900032043457 5.388999938964844,8.211000442504883 5.388999938964844,8.211000442504883 C8.753000259399414,3.0209999084472656 16.437999725341797,-10.277000427246094 7.198999881744385,-10.758999824523926z"></path></g></g><g transform="matrix(0.9453113675117493,-0.3261692225933075,0.3261692225933075,0.9453113675117493,-71.85984802246094,26.137130737304688)" opacity="1" style="display: block;"><g opacity="1" transform="matrix(1,0,0,1,163.80999755859375,311.0769958496094)"><path stroke-linecap="round" stroke-linejoin="miter" fill-opacity="0" stroke-miterlimit="10" stroke="rgb(233,131,253)" stroke-opacity="1" stroke-width="4" d=" M-5.807000160217285,-3.2739999294281006 C-1.934999942779541,-1.090999960899353 1.934999942779541,1.090999960899353 5.807000160217285,3.2739999294281006"></path></g><g opacity="1" transform="matrix(1,0,0,1,163.843994140625,306.2690124511719)"><path stroke-linecap="round" stroke-linejoin="miter" fill-opacity="0" stroke-miterlimit="10" stroke="rgb(233,131,253)" stroke-opacity="1" stroke-width="4" d=" M-5.599999904632568,1.524999976158142 C-1.8669999837875366,0.5070000290870667 1.8660000562667847,-0.5090000033378601 5.599999904632568,-1.5260000228881836"></path></g><g opacity="1" transform="matrix(1,0,0,1,156.45599365234375,311.3840026855469)"><path stroke-linecap="round" stroke-linejoin="miter" fill-opacity="0" stroke-miterlimit="10" stroke="rgb(233,131,253)" stroke-opacity="1" stroke-width="4" d=" M-1.7869999408721924,3.5889999866485596 C-0.5950000286102295,1.1959999799728394 0.5960000157356262,-1.1959999799728394 1.7879999876022339,-3.5889999866485596"></path></g></g><g transform="matrix(1,0,0,1,20,-42.5)" opacity="1" style="display: block;"><g opacity="1" transform="matrix(1,0,0,1,0,0)"><path stroke-linecap="round" stroke-linejoin="miter" fill-opacity="0" stroke-miterlimit="10" stroke="rgb(233,131,253)" stroke-opacity="1" stroke-width="4" d=" M106.33899688720703,278.7179870605469 C106.33899688720703,278.7179870605469 106.33899688720703,307.9419860839844 106.33899688720703,307.9419860839844"></path></g><g opacity="1" transform="matrix(1,0,0,1,112.03700256347656,311.4020080566406)"><path stroke-linecap="round" stroke-linejoin="miter" fill-opacity="0" stroke-miterlimit="10" stroke="rgb(233,131,253)" stroke-opacity="1" stroke-width="4" d=" M-5.697999954223633,-3.4609999656677246 C-1.8990000486373901,-1.152999997138977 1.899999976158142,1.152999997138977 5.697999954223633,3.4600000381469727"></path></g><g opacity="1" transform="matrix(1,0,0,1,112.22699737548828,306.5979919433594)"><path stroke-linecap="round" stroke-linejoin="miter" fill-opacity="0" stroke-miterlimit="10" stroke="rgb(233,131,253)" stroke-opacity="1" stroke-width="4" d=" M-5.645999908447266,1.343000054359436 C-1.8819999694824219,0.44699999690055847 1.8819999694824219,-0.4480000138282776 5.645999908447266,-1.343000054359436"></path></g><g opacity="1" transform="matrix(1,0,0,1,104.6780014038086,311.47100830078125)"><path stroke-linecap="round" stroke-linejoin="miter" fill-opacity="0" stroke-miterlimit="10" stroke="rgb(233,131,253)" stroke-opacity="1" stroke-width="4" d=" M-1.9019999504089355,3.5290000438690186 C-0.6330000162124634,1.1759999990463257 0.6340000033378601,-1.1759999990463257 1.9019999504089355,-3.5299999713897705"></path></g></g><g transform="matrix(1,0,0,1,20,-42.5)" opacity="1" style="display: block;"><g opacity="1" transform="matrix(1,0,0,1,150.22300720214844,294.12799072265625)"><path stroke-linecap="round" stroke-linejoin="miter" fill-opacity="0" stroke-miterlimit="10" stroke="rgb(233,131,253)" stroke-opacity="1" stroke-width="4" d=" M-8.21399974822998,-15.331000328063965 C-8.21399974822998,-15.331000328063965 8.213000297546387,15.329999923706055 8.213000297546387,15.329999923706055"></path></g></g><g transform="matrix(1,0,0,1,19.569488525390625,-40.7779541015625)" opacity="1" style="display: block;"><g opacity="1" transform="matrix(1,0,0,1,116.30400085449219,234.36199951171875)"><path fill="rgb(163,198,255)" fill-opacity="1" d=" M81.1240005493164,-2.9700000286102295 C81.1240005493164,-11.428999900817871 78.73699951171875,-19.326000213623047 74.60600280761719,-26.035999298095703 C71.39299774169922,-31.2549991607666 69.39900207519531,-37.11600112915039 68.91699981689453,-43.189998626708984 C68.87999725341797,-43.650001525878906 68.8499984741211,-44.12799835205078 68.8290023803711,-44.62200164794922 C68.80999755859375,-45.11800003051758 68.80000305175781,-45.597999572753906 68.79900360107422,-46.0620002746582 C68.79900360107422,-46.0620002746582 68.79900360107422,-51.840999603271484 68.79900360107422,-51.840999603271484 C68.79900360107422,-51.840999603271484 2.1419999599456787,-51.840999603271484 2.1419999599456787,-51.840999603271484 C2.1419999599456787,-51.840999603271484 2.1419999599456787,-42.49700164794922 2.1419999599456787,-42.49700164794922 C2.111999988555908,-42.27899932861328 2.075000047683716,-42.07400131225586 2.0420000553131104,-41.861000061035156 C0.875,-34.426998138427734 -2.2880001068115234,-30.358999252319336 -4.0920000076293945,-28.461000442504883 C-12.366000175476074,-19.760000228881836 -26.007999420166016,-20.673999786376953 -36.224998474121094,-21.357999801635742 C-44.345001220703125,-21.902000427246094 -51.220001220703125,-23.68199920654297 -54.92100143432617,-24.656999588012695 C-66.83999633789062,-27.798999786376953 -72.02200317382812,-31.097999572753906 -75.3239974975586,-31.059999465942383 C-75.91200256347656,-30.20800018310547 -76.4990005493164,-29.357999801635742 -77.08599853515625,-28.506000518798828 C-77.54299926757812,-28.770999908447266 -77.9990005493164,-29.034000396728516 -78.45500183105469,-29.298999786376953 C-81.1240005493164,-24.993000030517578 -78.8270034790039,-13.27299976348877 -74.68699645996094,-3.6040000915527344 C-64.0469970703125,21.243000030517578 -40.928001403808594,33.5369987487793 -34.25199890136719,36.60300064086914 C-1.0859999656677246,51.840999603271484 32.7599983215332,44.44599914550781 48.95199966430664,39.48400115966797 C50.0260009765625,39.18199920654297 51.090999603271484,38.85200119018555 52.130001068115234,38.472999572753906 C52.13999938964844,38.470001220703125 52.14899826049805,38.46699905395508 52.15800094604492,38.4640007019043 C69.05899810791016,32.28799819946289 81.1240005493164,16.06800079345703 81.1240005493164,-2.9700000286102295z"></path></g><g opacity="1" transform="matrix(1,0,0,1,151.8769989013672,194.45399475097656)"><path fill="rgb(255,255,255)" fill-opacity="1" d=" M-33.37699890136719,-4.451000213623047 C-22.231000900268555,-0.5139999985694885 -3.3289999961853027,4.171000003814697 18.60099983215332,-0.3970000147819519 C24.02199935913086,-1.5260000228881836 28.915000915527344,-3.072000026702881 33.255001068115234,-4.783999919891357 C33.34700012207031,-3.697999954223633 33.439998626708984,-2.6110000610351562 33.53200149536133,-1.524999976158142 C26.56800079345703,1.128000020980835 15.642000198364258,4.335000038146973 1.9670000076293945,4.544000148773193 C-13.772000312805176,4.783999919891357 -26.195999145507812,0.9470000267028809 -33.53099822998047,-1.9529999494552612 C-33.47999954223633,-2.7850000858306885 -33.428001403808594,-3.618000030517578 -33.37699890136719,-4.451000213623047z"></path></g><g opacity="1" transform="matrix(1,0,0,1,176.37899780273438,229.468994140625)"><path fill="rgb(137,171,236)" fill-opacity="1" d=" M13.621000289916992,-22.4689998626709 C25.71299934387207,-8.446999549865723 31.3799991607666,6.238999843597412 26.607999801635742,15.003999710083008 C25.97100067138672,16.174999237060547 23.391000747680664,20.51099967956543 18.934999465942383,21.77400016784668 C16.482999801635742,22.4689998626709 13.62600040435791,22.16699981689453 5.560999870300293,17.18199920654297 C-4.998000144958496,10.654999732971191 -5.691999912261963,7.715000152587891 -10.361000061035156,6.4679999351501465 C-13.947999954223633,5.510000228881836 -19.547000885009766,5.640999794006348 -27.558000564575195,11.824999809265137 C-27.558000564575195,11.824999809265137 -31.378999710083008,-2.7160000801086426 -31.378999710083008,-2.7160000801086426 C-29.32699966430664,-5.666999816894531 -26.003999710083008,-9.439000129699707 -21.36199951171875,-10.468999862670898 C-16.636999130249023,-11.517999649047852 -13.550000190734863,-9.107999801635742 -8.04699993133545,-7.468999862670898 C-4.706999778747559,-6.474999904632568 0.15600000321865082,-5.63100004196167 6.620999813079834,-6.468999862670898 C13.760000228881836,-1.1009999513626099 16.128000259399414,-1.9279999732971191 16.920000076293945,-2.4690001010894775 C20.746000289916992,-5.083000183105469 14.848999977111816,-19.527999877929688 13.621000289916992,-22.4689998626709z"></path></g><g opacity="1" transform="matrix(1,0,0,1,192.25100708007812,227.90199279785156)"><path fill="rgb(121,155,209)" fill-opacity="1" d=" M-6.625999927520752,20.902000427246094 C-6.625999927520752,20.902000427246094 10.619000434875488,1.4450000524520874 4.684000015258789,-11.729000091552734 C4.684000015258789,-11.729000091552734 0.7490000128746033,-17.902000427246094 -2.250999927520752,-20.902000427246094 C-0.4690000116825104,-17.702999114990234 1.5260000228881836,-12.946000099182129 1.7489999532699585,-6.9029998779296875 C1.7890000343322754,-5.820000171661377 1.7580000162124634,-5.0879998207092285 1.7489999532699585,-4.9029998779296875 C1.6779999732971191,-3.361999988555908 1.2929999828338623,1.444000005722046 -4.250999927520752,10.097000122070312 C-5.701000213623047,12.359999656677246 -7.781000137329102,15.319000244140625 -10.619999885559082,18.55699920654297 C-9.288999557495117,19.34000015258789 -7.956999778747559,20.1200008392334 -6.625999927520752,20.902000427246094z"></path></g><g opacity="1" transform="matrix(1,0,0,1,159.66299438476562,228.6009979248047)"><path fill="rgb(121,155,209)" fill-opacity="1" d=" M-14.022000312805176,-2.7339999675750732 C-14.022000312805176,-2.7339999675750732 -6.419000148773193,1.9889999628067017 -4.540999889373779,2.194000005722046 C-2.6630001068115234,2.3989999294281006 0.7070000171661377,5.599999904632568 14.022000312805176,-5.500999927520752 C13.793000221252441,-5.533999919891357 13.565999984741211,-5.566999912261963 13.336999893188477,-5.599999904632568 C11.045000076293945,-4.046000003814697 5.75,-0.9210000038146973 -1.6460000276565552,-0.5770000219345093 C-6.991000175476074,-0.328000009059906 -11.229000091552734,-1.6339999437332153 -13.663000106811523,-2.5999999046325684 C-13.781999588012695,-2.6440000534057617 -13.902000427246094,-2.690000057220459 -14.022000312805176,-2.7339999675750732z"></path></g><g opacity="1" transform="matrix(1,0,0,1,153.95799255371094,239.19200134277344)"><path fill="rgb(137,171,236)" fill-opacity="1" d=" M-36.040000915527344,-17.226999282836914 C-29.086000442504883,-23.027999877929688 -18.52400016784668,-19.395999908447266 -17.95800018310547,-19.191999435424805 C-14.871000289916992,-18.08099937438965 -14.916000366210938,-17.08099937438965 -7.802999973297119,-13.029999732971191 C-2.440000057220459,-9.975000381469727 0.2409999966621399,-8.449000358581543 2.0420000553131104,-8.192000389099121 C6.939000129699707,-7.494999885559082 12.015999794006348,-10.857000350952148 21.969999313354492,-17.610000610351562 C27.885000228881836,-21.621999740600586 32.14699935913086,-25.128000259399414 37.04199981689453,-24.191999435424805 C39.0629997253418,-23.80500030517578 39.96200180053711,-22.893999099731445 40.25,-22.57200050354004 C41.26499938964844,-21.433000564575195 42.332000732421875,-19.003000259399414 40.04199981689453,-12.192000389099121 C36.73400115966797,-2.3529999256134033 30.5939998626709,4.229000091552734 30.04199981689453,4.808000087738037 C24.589000701904297,10.536999702453613 16.17099952697754,19.3799991607666 3.053999900817871,21.797000885009766 C-15.015999794006348,25.128000259399414 -37.393001556396484,15.414999961853027 -40.95800018310547,0.8080000281333923 C-42.332000732421875,-4.822000026702881 -41.314998626708984,-12.82800006866455 -36.040000915527344,-17.226999282836914z"></path></g></g><g transform="matrix(1,0,0,1,19.569488525390625,-40.7779541015625)" opacity="1" style="display: block;"><g opacity="1" transform="matrix(1,0,0,1,151.77499389648438,129.13099670410156)"><path fill="rgb(163,198,255)" fill-opacity="1" d=" M33.32899856567383,-22.9689998626709 C33.32899856567383,-41.375999450683594 18.408000946044922,-56.29800033569336 0.0010000000474974513,-56.29800033569336 C-18.4060001373291,-56.29800033569336 -33.327999114990234,-41.375999450683594 -33.327999114990234,-22.9689998626709 C-33.327999114990234,-22.9689998626709 -33.327999114990234,56.29800033569336 -33.327999114990234,56.29800033569336 C-33.327999114990234,56.29800033569336 33.32899856567383,56.29800033569336 33.32899856567383,56.29800033569336 C33.32899856567383,56.29800033569336 33.32899856567383,-22.9689998626709 33.32899856567383,-22.9689998626709z"></path></g><g opacity="1" transform="matrix(1,0,0,1,193.26600646972656,139.6269989013672)"><path fill="rgb(233,131,253)" fill-opacity="1" d=" M-8.161999702453613,-6.823999881744385 C-8.161999702453613,-6.823999881744385 5.486000061035156,-2.069000005722046 5.486000061035156,-2.069000005722046 C8.163000106811523,-1.1360000371932983 8.067000389099121,1.9299999475479126 5.335000038146973,2.753999948501587 C5.335000038146973,2.753999948501587 -8.161999702453613,6.824999809265137 -8.161999702453613,6.824999809265137"></path></g><g opacity="1" transform="matrix(1,0,0,1,161.0989990234375,121.54100036621094)"><path fill="rgb(255,255,255)" fill-opacity="1" d=" M18.187999725341797,-0.0010000000474974513 C18.187999725341797,10.043999671936035 10.043999671936035,18.18899917602539 0,18.18899917602539 C-10.045999526977539,18.18899917602539 -18.18899917602539,10.043999671936035 -18.18899917602539,-0.0010000000474974513 C-18.18899917602539,-10.045999526977539 -10.045999526977539,-18.18899917602539 0,-18.18899917602539 C10.043999671936035,-18.18899917602539 18.187999725341797,-10.045999526977539 18.187999725341797,-0.0010000000474974513z"></path></g><g opacity="1" transform="matrix(1,0,0,1,161.09800720214844,121.54100036621094)"><path fill="rgb(29,29,27)" fill-opacity="1" d=" M12.861000061035156,0 C12.861000061035156,7.103000164031982 7.103000164031982,12.861000061035156 0.0010000000474974513,12.861000061035156 C-7.103000164031982,12.861000061035156 -12.861000061035156,7.103000164031982 -12.861000061035156,0 C-12.861000061035156,-7.103000164031982 -7.103000164031982,-12.861000061035156 0.0010000000474974513,-12.861000061035156 C7.103000164031982,-12.861000061035156 12.861000061035156,-7.103000164031982 12.861000061035156,0z"></path></g></g><g transform="matrix(-1,0,0,1,322.8067626953125,-39.72660827636719)" opacity="1" style="display: none;"><g opacity="1" transform="matrix(1,0,0,1,151.77499389648438,129.13099670410156)"><path fill="rgb(163,198,255)" fill-opacity="1" d=" M33.32899856567383,-22.9689998626709 C33.32899856567383,-41.375999450683594 18.408000946044922,-56.29800033569336 0.0010000000474974513,-56.29800033569336 C-18.4060001373291,-56.29800033569336 -33.327999114990234,-41.375999450683594 -33.327999114990234,-22.9689998626709 C-33.327999114990234,-22.9689998626709 -33.327999114990234,56.29800033569336 -33.327999114990234,56.29800033569336 C-33.327999114990234,56.29800033569336 33.32899856567383,56.29800033569336 33.32899856567383,56.29800033569336 C33.32899856567383,56.29800033569336 33.32899856567383,-22.9689998626709 33.32899856567383,-22.9689998626709z"></path></g><g opacity="1" transform="matrix(1,0,0,1,193.26600646972656,139.6269989013672)"><path fill="rgb(233,131,253)" fill-opacity="1" d=" M-8.161999702453613,-6.823999881744385 C-8.161999702453613,-6.823999881744385 5.486000061035156,-2.069000005722046 5.486000061035156,-2.069000005722046 C8.163000106811523,-1.1360000371932983 8.067000389099121,1.9299999475479126 5.335000038146973,2.753999948501587 C5.335000038146973,2.753999948501587 -8.161999702453613,6.824999809265137 -8.161999702453613,6.824999809265137"></path></g><g opacity="1" transform="matrix(1,0,0,1,161.0989990234375,121.54100036621094)"><path fill="rgb(255,255,255)" fill-opacity="1" d=" M18.187999725341797,-0.0010000000474974513 C18.187999725341797,10.043999671936035 10.043999671936035,18.18899917602539 0,18.18899917602539 C-10.045999526977539,18.18899917602539 -18.18899917602539,10.043999671936035 -18.18899917602539,-0.0010000000474974513 C-18.18899917602539,-10.045999526977539 -10.045999526977539,-18.18899917602539 0,-18.18899917602539 C10.043999671936035,-18.18899917602539 18.187999725341797,-10.045999526977539 18.187999725341797,-0.0010000000474974513z"></path></g><g opacity="1" transform="matrix(1,0,0,1,161.09800720214844,121.54100036621094)"><path fill="rgb(29,29,27)" fill-opacity="1" d=" M12.861000061035156,0 C12.861000061035156,7.103000164031982 7.103000164031982,12.861000061035156 0.0010000000474974513,12.861000061035156 C-7.103000164031982,12.861000061035156 -12.861000061035156,7.103000164031982 -12.861000061035156,0 C-12.861000061035156,-7.103000164031982 -7.103000164031982,-12.861000061035156 0.0010000000474974513,-12.861000061035156 C7.103000164031982,-12.861000061035156 12.861000061035156,-7.103000164031982 12.861000061035156,0z"></path></g></g><g transform="matrix(1,0,0,1,19.569488525390625,-40.7779541015625)" opacity="1" style="display: block;"><g opacity="1" transform="matrix(1,0,0,1,161.0989990234375,106.59300231933594)"><path fill="rgb(163,198,255)" fill-opacity="1" d=" M18.187999725341797,9.093999862670898 C14.961000442504883,7.48799991607666 8.67300033569336,4.888999938964844 0.3659999966621399,4.815000057220459 C-8.347999572753906,4.736999988555908 -14.9350004196167,7.473999977111816 -18.18899917602539,9.093999862670898 C-18.18899917602539,7.882999897003174 -18.069000244140625,1.4390000104904175 -12.862000465393066,-3.7669999599456787 C-9.571000099182129,-7.059000015258789 -5.0229997634887695,-9.093999862670898 -0.0010000000474974513,-9.093999862670898 C-0.0010000000474974513,-9.093999862670898 0,-9.093999862670898 0,-9.093999862670898 C10.043999671936035,-9.093999862670898 18.187999725341797,-0.9509999752044678 18.187999725341797,9.093999862670898z"></path></g></g><g transform="matrix(1,0,0,1,19.569488525390625,-40.7779541015625)" opacity="1" style="display: block;"><g opacity="1" transform="matrix(1,0,0,1,161.09800720214844,149.58799743652344)"><path fill="rgb(163,198,255)" fill-opacity="1" d=" M-18.18899917602539,-9.093999862670898 C-18.18899917602539,-9.093999862670898 18.187999725341797,-9.093999862670898 18.187999725341797,-9.093999862670898 C18.187999725341797,0.9509999752044678 10.045000076293945,9.095000267028809 0,9.095000267028809 C0,9.095000267028809 -0.0010000000474974513,9.095000267028809 -0.0010000000474974513,9.095000267028809 C-10.045999526977539,9.095000267028809 -18.18899917602539,0.9509999752044678 -18.18899917602539,-9.093999862670898z"></path></g></g></g></svg>