<svg width="184" height="312" viewBox="0 0 184 312" fill="none" xmlns="http://www.w3.org/2000/svg">
<path d="M69.5838 42.8586C69.5838 42.8586 68.9778 42.8427 68.4666 43.1108C68.0338 43.3379 67.5432 44.2759 67.6725 45.4884C67.6737 45.5005 67.6574 45.5037 67.6541 45.4921C67.354 44.2931 66.5374 43.517 65.7877 43.5251C65.4767 43.5285 65.0773 43.6622 64.7658 43.9235C62.5345 45.7934 66.7282 48.2724 67.9671 48.9399L67.9677 48.9399C68.0974 49.0201 68.2269 49.1 68.3567 49.1799C68.3613 49.1827 68.3669 49.1817 68.37 49.1773L68.9036 48.4445C69.9354 46.9384 72.3036 43.0722 69.5838 42.8586Z" fill="#A3C6FF"/>
<path d="M102.699 79.7707C103.982 80.0402 105.264 80.3095 106.546 80.579" stroke="#FDC583" stroke-width="4" stroke-miterlimit="10" stroke-linecap="round"/>
<path d="M102.766 79.7458C103.725 79.127 104.685 78.5088 105.645 77.8902" stroke="#FDC583" stroke-width="4" stroke-miterlimit="10" stroke-linecap="round"/>
<path d="M102.398 82.0854C102.521 81.3055 102.644 80.526 102.767 79.7462" stroke="#FDC583" stroke-width="4" stroke-miterlimit="10" stroke-linecap="round"/>
<path d="M87.7273 70.7069L87.5014 79.3338" stroke="#FDC583" stroke-width="4" stroke-miterlimit="10" stroke-linecap="round"/>
<path d="M87.5013 79.3336C88.6034 80.0442 89.7054 80.7543 90.8071 81.4646" stroke="#FDC583" stroke-width="4" stroke-miterlimit="10" stroke-linecap="round"/>
<path d="M87.5727 79.3354C88.6892 79.1 89.8057 78.8648 90.9221 78.6296" stroke="#FDC583" stroke-width="4" stroke-miterlimit="10" stroke-linecap="round"/>
<path d="M86.3965 81.3898C86.7887 80.705 87.1804 80.0205 87.5724 79.3354" stroke="#FDC583" stroke-width="4" stroke-miterlimit="10" stroke-linecap="round"/>
<path d="M98.2415 71.0056L102.847 80.1835" stroke="#FDC583" stroke-width="4" stroke-miterlimit="10" stroke-linecap="round"/>
<path d="M114.804 57.9444C114.869 55.4473 114.227 53.0976 113.061 51.085C112.154 49.5195 111.612 47.7739 111.516 45.9772C111.509 45.8411 111.504 45.6998 111.502 45.5538C111.5 45.4072 111.501 45.2654 111.504 45.1284L111.549 43.4225L91.8996 42.908L91.8273 45.6663C91.8168 45.7304 91.8043 45.7907 91.7929 45.8533C91.3915 48.0388 90.4276 49.2153 89.8812 49.7616C87.3749 52.2663 83.3606 51.8912 80.3542 51.6104C77.9648 51.3871 75.9519 50.8086 74.8685 50.4922C71.3793 49.4727 69.8773 48.4588 68.9036 48.4446C68.7237 48.6915 68.5441 48.9379 68.3645 49.1849C68.2318 49.1031 68.0995 49.022 67.9671 48.9402C67.147 50.1908 67.7335 53.6682 68.8792 56.5545C71.8236 63.9715 78.5435 67.7791 80.4877 68.7357C90.1465 73.49 100.181 71.5683 104.992 70.2285C105.311 70.1476 105.628 70.0584 105.937 69.9545C105.94 69.9537 105.942 69.9529 105.945 69.9521C110.975 68.2594 114.657 63.5644 114.804 57.9444Z" fill="#A3C6FF"/>
<path d="M91.8576 45.1171C95.1128 46.3653 100.648 47.8942 107.148 46.715C108.755 46.4236 110.209 46.005 111.502 45.5331C111.521 45.8544 111.54 46.176 111.558 46.4973C109.485 47.2267 106.239 48.0891 102.207 48.0452C97.5654 47.9946 93.9327 46.766 91.7929 45.8533C91.8144 45.6081 91.8362 45.3626 91.8576 45.1171Z" fill="white"/>
<path d="M96.6589 63.7471C96.6589 63.7471 98.8636 65.2 99.4156 65.275C99.9676 65.3501 100.936 66.321 104.947 63.1468C104.88 63.1352 104.813 63.1238 104.746 63.1122C104.058 63.5533 102.473 64.4349 100.29 64.4794C98.7129 64.5116 97.4737 64.0934 96.7637 63.7894C96.7289 63.7755 96.6939 63.761 96.6589 63.7471Z" fill="#799BD1"/>
<path d="M112.139 20.8813C112.281 15.4475 107.998 10.9274 102.572 10.7853C97.1465 10.6432 92.6325 14.933 92.4902 20.3668L91.8774 43.7664L111.526 44.2809L112.139 20.8813Z" fill="#A3C6FF"/>
<path d="M111.933 28.7457L115.92 30.2548C116.702 30.5508 116.65 31.4552 115.838 31.6773L111.828 32.7749" fill="#FDC583"/>
<path d="M110.306 25.376C110.228 28.3413 107.764 30.6828 104.804 30.6053C101.842 30.5277 99.5048 28.0605 99.5824 25.0952C99.6601 22.1299 102.123 19.7889 105.085 19.8665C108.045 19.944 110.383 22.4107 110.306 25.376Z" fill="white"/>
<path d="M108.735 25.3351C108.68 27.432 106.938 29.0873 104.845 29.0325C102.751 28.9776 101.098 27.2334 101.153 25.1366C101.208 23.0398 102.949 21.3845 105.044 21.4393C107.137 21.4941 108.79 23.2383 108.735 25.3351Z" fill="#1D1D1B"/>
<path d="M110.351 23.6482C109.412 23.1492 107.579 22.3334 105.13 22.2474C102.562 22.1571 100.599 22.9143 99.6277 23.3674C99.6371 23.0099 99.7223 21.1085 101.297 19.6119C102.293 18.6655 103.649 18.0999 105.13 18.1387L105.13 18.1387C108.091 18.2162 110.428 20.6829 110.351 23.6482Z" fill="#629EFF"/>
<path d="M99.4357 30.6904L110.159 30.9712C110.081 33.9365 107.618 36.2777 104.657 36.2002L104.656 36.2002C101.695 36.1227 99.358 33.6557 99.4357 30.6904Z" fill="#A3C6FF"/>
<path d="M82.9952 53.9693C85.7413 49.9882 109.459 58.1097 106.871 60.9754C99.8381 72.4793 80.2491 57.9503 82.9952 53.9693Z" fill="#799BD1" fill-opacity="0.52" stroke="#799BD1" stroke-opacity="0.71"/>
<g clip-path="url(#clip0)">
<path d="M73.185 251.505L70.2807 257.263C64.3708 260.425 53.201 259.822 46.4861 258.826C32.1735 256.678 20.9858 243.552 17.3242 230.103C13.8355 217.341 19.4234 206.338 21.8505 194.101C22.3279 191.634 22.617 189.135 22.7153 186.625C28.1558 185.872 33.4116 184.124 38.2206 181.47C45.0608 177.657 49.11 172.717 53.3322 166.828C56.0613 172.726 57.8713 179.008 58.6995 185.455C60.083 195.419 58.8903 205.837 58.3953 215.759C57.6797 229.679 58.6995 244.596 73.185 251.505Z" fill="url(#paint0_linear)"/>
<path d="M53.3083 166.828C49.0861 172.717 45.0368 177.657 38.1966 181.47C33.3877 184.124 28.1319 185.872 22.6913 186.625C23.1863 176.899 21.2601 166.499 18.2962 157.621C14.2469 145.402 7.83606 135.199 -0.0239258 125.169C8.03286 128.355 16.0777 130.127 23.7111 134.441C32.1078 139.214 38.7572 145.36 44.6432 152.937C48.0475 157.225 50.9545 161.884 53.3083 166.828V166.828Z" fill="url(#paint1_linear)"/>
<path d="M129.69 227.597C129.434 230.804 128.98 233.993 128.33 237.144C126.872 244.07 123.076 250.283 117.578 254.738C112.08 259.193 105.217 261.618 98.1425 261.606H90.9087C86.1083 261.605 81.3598 260.614 76.9589 258.696C72.558 256.778 68.5992 253.973 65.329 250.458C62.0588 246.942 59.5474 242.79 57.9513 238.26C56.3551 233.731 55.7085 228.921 56.0516 224.13C56.2901 220.777 56.7016 217.251 57.3278 213.558C59.4925 200.801 64.2753 186.112 73.5427 170.252L117.56 172.042C117.56 172.042 132.135 197.699 129.69 227.597Z" fill="#FF5F54"/>
<path d="M119.188 175.497L113.594 191.201C132.242 205.193 137.323 218.051 138.343 226.308C138.487 227.402 138.865 228.451 139.451 229.384C140.038 230.318 140.819 231.114 141.742 231.717C142.664 232.321 143.706 232.717 144.796 232.881C145.886 233.044 146.999 232.969 148.057 232.663V232.663C149.685 232.185 151.112 231.186 152.118 229.82C153.124 228.453 153.654 226.794 153.627 225.097C153.24 184.22 119.188 175.497 119.188 175.497Z" fill="#FF5F54"/>
<path d="M70.2926 241.929L95.9359 241.565L81.9991 292.579C82.0517 293.588 81.8983 294.598 81.5483 295.546C81.1983 296.495 80.659 297.362 79.9632 298.095C79.2674 298.828 78.4298 299.411 77.5013 299.81C76.5728 300.208 75.5729 300.413 74.5625 300.413V300.413C72.8156 300.414 71.1241 299.8 69.7842 298.678C68.4442 297.557 67.5412 296 67.2333 294.279L70.2926 241.929Z" fill="#FF5F54"/>
<path d="M97.1764 243.009L122.82 242.287L125.301 293.665C125.353 294.674 125.2 295.684 124.85 296.632C124.5 297.58 123.96 298.447 123.265 299.18C122.569 299.913 121.731 300.497 120.803 300.896C119.874 301.294 118.874 301.499 117.864 301.499C116.108 301.511 114.405 300.901 113.055 299.777C111.705 298.654 110.795 297.089 110.487 295.359L97.1764 243.009Z" fill="#FF5F54"/>
<path d="M123.338 224.906C123.338 227.728 123.201 230.497 122.939 233.17C122.404 238.728 119.82 243.889 115.69 247.646C111.561 251.402 106.181 253.486 100.599 253.492V253.492C95.0193 253.483 89.6425 251.395 85.517 247.636C81.3914 243.877 78.8128 238.716 78.2837 233.158C78.0213 230.485 77.8842 227.716 77.8842 224.894C77.8842 200.497 88.064 180.694 100.617 180.694C113.171 180.694 123.338 200.497 123.338 224.906Z" fill="#F6F0F4"/>
<path d="M129.69 227.597C127.519 228.611 125.378 229.5 123.303 230.282C104.744 237.126 89.37 234.244 77.9796 228.874C70.1686 225.161 63.1544 219.963 57.3278 213.57C59.4925 200.813 64.2753 186.123 73.5427 170.264L117.56 172.054C117.56 172.054 132.135 197.699 129.69 227.597Z" fill="#FDC583"/>
<path d="M122.832 222.889C113.952 227.382 99.4007 225.145 90.0916 223.397C89.4118 223.271 89.1196 224.315 89.8054 224.441C99.8719 226.326 113.856 228.617 123.374 223.844C124 223.51 123.452 222.579 122.832 222.889Z" fill="#511812"/>
<path d="M141.921 203.385C141.921 203.385 135.427 196.887 113.23 199.327C113.23 199.327 97.8025 202.573 92.3935 198.242L63.4344 231.547L64.7882 235.342L133.799 238.033L168.984 200.938V197.46C168.984 197.46 167.791 197.734 166.175 198.057C162.58 198.779 158.928 199.178 155.261 199.25C151.725 199.327 145.964 200.043 141.921 203.385Z" fill="#F6F0F4"/>
<path d="M63.0409 238.074L92.3936 202.86L138.283 207.138H148.117L170.636 200.151L133.155 240.64L116.91 241.499H104.935L63.0409 238.074Z" fill="#9088D4"/>
<path d="M148.117 207.138L116.91 241.499H104.225L137.43 207.138H148.117Z" fill="#194070"/>
<path d="M75.0217 175.939C76.7164 176.563 78.1653 177.716 79.1544 179.228C80.1435 180.74 80.6202 182.53 80.5141 184.334C79.2856 203.922 85.434 216.452 90.1274 222.358C90.8037 223.229 91.2842 224.235 91.536 225.308C91.7878 226.381 91.805 227.496 91.5864 228.576C91.3678 229.656 90.9186 230.677 90.2695 231.568C89.6204 232.458 88.7867 233.198 87.8254 233.737V233.737C86.3443 234.564 84.6329 234.882 82.9536 234.643C81.2742 234.404 79.7197 233.62 78.5282 232.412C59.0453 212.895 60.7508 192.687 63.9175 181.619C64.2323 180.489 64.7777 179.438 65.5191 178.53C66.2606 177.622 67.1821 176.878 68.2254 176.344C69.2688 175.81 70.4114 175.499 71.5811 175.429C72.7508 175.359 73.9223 175.533 75.0217 175.939Z" fill="#FF5F54"/>
<path d="M54.5846 138.457L54.7039 138.212C25.9714 102.836 37.7315 72.4724 37.7315 72.4724C54.0837 86.7146 60.2798 111.219 62.3551 122.454L72.4157 101.78C72.2785 100.635 65.5933 71.1061 38.5724 66.0405C38.5963 66.0405 15.7975 117.8 54.5846 138.457Z" fill="#FF5F54"/>
<path d="M54.7039 138.212L62.379 122.454C60.3037 111.219 54.1076 86.7146 37.7554 72.4724C37.7316 72.4724 25.9714 102.836 54.7039 138.212Z" fill="url(#paint2_linear)"/>
<path d="M116.093 119.298L138.158 126.959C136.673 121.452 125.533 79.2743 127.501 55.4379C150.527 78.1108 152.477 102.574 143.084 127.95C146.167 123.964 162.99 99.0594 135.588 61.5536L125.921 49.0239C125.921 49.0239 108.042 81.4879 116.093 119.298Z" fill="#FF5F54"/>
<path d="M127.477 55.4558C125.509 79.2922 136.649 121.47 138.134 126.977L142.607 128.528C142.607 128.528 142.774 128.343 143.06 127.967C152.453 102.592 150.503 78.1287 127.477 55.4558Z" fill="url(#paint3_linear)"/>
<path d="M42.7648 144.358C78.8265 148.761 103.438 139.053 103.438 139.053C136.476 149.065 153.872 147.961 163.038 144.25C165.584 141.036 167.708 137.509 169.359 133.755C169.359 133.755 164.255 136.303 162.048 134.483C162.048 134.483 169.747 131.404 171.351 128.158C171.351 128.158 162.483 132.884 155.601 125.629C155.601 125.629 137.943 81.476 98.876 80.3543C98.22 80.3543 97.564 80.3065 96.908 80.2588C93.4492 79.9843 78.8265 79.8352 65.647 94.5248C65.647 94.5248 53.8272 106.553 44.7149 140.408C44.2945 141.826 43.6349 143.162 42.7648 144.358V144.358Z" fill="#FF5F54"/>
<path d="M28.9174 149.889C28.9174 149.889 37.7494 163.558 72.4037 175.097L83.4482 178.081C99.0974 182.236 115.753 180.052 129.803 172.001L130.167 171.804C130.167 171.804 150.843 160.026 163.014 144.28C153.848 147.991 136.452 149.095 103.414 139.083C103.414 139.083 78.8026 148.791 42.7409 144.387C40.7133 147.293 36.5925 150.676 28.9174 149.889Z" fill="url(#paint4_linear)"/>
<path d="M94.0336 142.096C93.8308 144.638 97.0154 146.971 101.106 147.299C105.197 147.627 108.716 145.843 108.919 143.302C109.121 140.76 105.937 138.427 101.852 138.093C97.7668 137.759 94.2423 139.584 94.0336 142.096Z" fill="#511812"/>
<path d="M134.407 152.156C134.198 154.698 137.389 157.025 141.474 157.359C145.559 157.693 149.083 155.903 149.286 153.355C149.489 150.807 146.304 148.48 142.219 148.152C138.134 147.824 134.61 149.608 134.407 152.156Z" fill="#FFCDD4"/>
<path d="M54.8947 151.631C54.6264 154.167 57.7274 156.583 61.8244 157.001C65.9214 157.418 69.4697 155.742 69.744 153.206C70.0183 150.67 66.9173 148.254 62.8143 147.836C58.7114 147.418 55.169 149.095 54.8947 151.631Z" fill="#FFCDD4"/>
<path d="M89.3423 151.312L89.3515 151.341C94.9862 159.033 101.962 155.28 102.036 155.237C102.287 155.098 102.472 154.865 102.551 154.589C102.631 154.314 102.597 154.018 102.458 153.767C102.319 153.516 102.086 153.33 101.811 153.251C101.535 153.172 101.239 153.205 100.988 153.344C100.748 153.472 95.562 156.174 91.0999 150.064C90.9272 149.847 90.678 149.704 90.4035 149.665C90.129 149.626 89.85 149.693 89.6237 149.854C89.3974 150.014 89.241 150.255 89.1866 150.526C89.1321 150.798 89.1838 151.081 89.331 151.316L89.3423 151.312Z" fill="#511812"/>
<path d="M82.3347 141.983C84.7817 141.722 86.365 138.609 85.9274 135.032C85.4898 131.455 83.1062 128.775 80.6651 129.015C78.2239 129.255 76.6348 132.389 77.0724 135.965C77.51 139.542 79.9051 142.243 82.3347 141.983Z" fill="#511812"/>
<path d="M118.335 140.984C120.782 140.729 122.365 137.616 121.927 134.033C121.49 130.45 119.106 127.775 116.665 128.015C114.224 128.255 112.635 131.389 113.072 134.972C113.51 138.554 115.888 141.23 118.335 140.984Z" fill="#511812"/>
<circle cx="79" cy="136" r="15.5" fill="#F2F1F1" fill-opacity="0.2" stroke="#703632"/>
<circle cx="122" cy="135" r="16" fill="#DDDADA" fill-opacity="0.2"/>
<circle cx="122" cy="135" r="15.5" stroke="black" stroke-opacity="0.55"/>
<path d="M95 137C100.247 134.248 102.839 134.42 107 137" stroke="#703632"/>
</g>
<defs>
<linearGradient id="paint0_linear" x1="25" y1="189" x2="76" y2="252" gradientUnits="userSpaceOnUse">
<stop stop-color="#F6625A"/>
<stop offset="1" stop-color="#D95149"/>
</linearGradient>
<linearGradient id="paint1_linear" x1="7.96323" y1="137.019" x2="51.3457" y2="139.38" gradientUnits="userSpaceOnUse">
<stop stop-color="#FFECEF"/>
<stop offset="1" stop-color="white"/>
</linearGradient>
<linearGradient id="paint2_linear" x1="39.4003" y1="85.1486" x2="61.4349" y2="85.7166" gradientUnits="userSpaceOnUse">
<stop stop-color="#FFECEF"/>
<stop offset="1" stop-color="white"/>
</linearGradient>
<linearGradient id="paint3_linear" x1="130.404" y1="69.546" x2="147.609" y2="69.8573" gradientUnits="userSpaceOnUse">
<stop stop-color="#FFECEF"/>
<stop offset="1" stop-color="white"/>
</linearGradient>
<linearGradient id="paint4_linear" x1="49" y1="147" x2="154" y2="168.5" gradientUnits="userSpaceOnUse">
<stop stop-color="#FFECEF"/>
<stop offset="1" stop-color="white"/>
</linearGradient>
<clipPath id="clip0">
<rect width="184" height="263" fill="white" transform="translate(0 49)"/>
</clipPath>
</defs>
</svg>
