<svg width="184" height="263" viewBox="0 0 184 263" fill="none" xmlns="http://www.w3.org/2000/svg">
<g clip-path="url(#clip0)">
<path d="M73.185 202.505L70.2807 208.263C64.3708 211.425 53.201 210.822 46.4861 209.826C32.1735 207.678 20.9858 194.552 17.3242 181.103C13.8355 168.341 19.4234 157.338 21.8505 145.101C22.3279 142.634 22.617 140.135 22.7153 137.625C28.1558 136.872 33.4116 135.124 38.2206 132.47C45.0608 128.657 49.11 123.717 53.3322 117.828C56.0613 123.726 57.8713 130.008 58.6995 136.455C60.083 146.419 58.8903 156.837 58.3953 166.759C57.6797 180.679 58.6995 195.596 73.185 202.505Z" fill="url(#paint0_linear)"/>
<path d="M53.3083 117.828C49.0861 123.717 45.0369 128.657 38.1967 132.47C33.3877 135.124 28.1319 136.872 22.6914 137.625C23.1864 127.899 21.2601 117.499 18.2962 108.621C14.247 96.4017 7.83612 86.1989 -0.0238647 76.1691C8.03292 79.3552 16.0778 81.1273 23.7111 85.4411C32.1078 90.2144 38.7572 96.3599 44.6433 103.937C48.0476 108.225 50.9545 112.884 53.3083 117.828Z" fill="url(#paint1_linear)"/>
<path d="M115.67 144.395C115.504 142.596 115.921 140.792 116.86 139.248C117.799 137.705 119.209 136.504 120.883 135.823C139.092 128.499 147.754 117.555 151.065 110.776C151.559 109.791 152.26 108.924 153.121 108.235C153.981 107.546 154.98 107.05 156.049 106.783C157.118 106.515 158.232 106.481 159.316 106.683C160.399 106.886 161.426 107.32 162.326 107.955C163.71 108.936 164.734 110.344 165.241 111.962C165.748 113.581 165.71 115.322 165.133 116.917C155.905 142.904 136.931 150.065 125.578 151.972C124.423 152.174 123.239 152.134 122.1 151.856C120.961 151.578 119.893 151.066 118.962 150.354C118.031 149.642 117.258 148.745 116.692 147.719C116.125 146.694 115.777 145.562 115.67 144.395Z" fill="#FF5F54"/>
<path d="M129.69 178.597C129.434 181.804 128.98 184.993 128.33 188.144C126.872 195.07 123.076 201.283 117.578 205.738C112.08 210.193 105.217 212.618 98.1425 212.606H90.9087C86.1084 212.605 81.3598 211.614 76.959 209.696C72.5581 207.778 68.5992 204.973 65.329 201.458C62.0589 197.942 59.5475 193.79 57.9513 189.26C56.3552 184.731 55.7085 179.921 56.0516 175.13C56.2902 171.777 56.7017 168.251 57.3278 164.558C59.4926 151.801 64.2754 137.112 73.5428 121.252L117.56 123.042C117.56 123.042 132.135 148.699 129.69 178.597Z" fill="#FF5F54"/>
<path d="M65.0593 193.364L90.7027 193L76.7658 244.014C76.8184 245.024 76.6651 246.033 76.315 246.981C75.965 247.93 75.4257 248.797 74.7299 249.53C74.0341 250.263 73.1965 250.846 72.268 251.245C71.3395 251.643 70.3396 251.849 69.3292 251.848C67.5823 251.849 65.8908 251.235 64.5509 250.114C63.2109 248.992 62.3079 247.435 62 245.715L65.0593 193.364Z" fill="#FF5F54"/>
<path d="M97.1764 194.009L122.82 193.287L125.301 244.665C125.353 245.674 125.2 246.684 124.85 247.632C124.5 248.58 123.96 249.447 123.265 250.18C122.569 250.913 121.731 251.497 120.803 251.896C119.874 252.294 118.874 252.499 117.864 252.499C116.108 252.511 114.405 251.901 113.055 250.777C111.705 249.654 110.795 248.089 110.487 246.359L97.1764 194.009Z" fill="#FF5F54"/>
<path d="M116.454 175.212C116.454 178.034 116.317 180.803 116.055 183.476C115.52 189.035 112.936 194.195 108.806 197.952C104.676 201.708 99.2968 203.793 93.7153 203.798C88.1352 203.789 82.7583 201.702 78.6328 197.942C74.5073 194.183 71.9287 189.022 71.3996 183.464C71.1372 180.791 71 178.022 71 175.2C71 150.803 81.1798 131 93.7331 131C106.286 131 116.454 150.803 116.454 175.212Z" fill="#F6F0F4"/>
<path d="M129.69 178.597C127.519 179.611 125.378 180.5 123.303 181.282C104.744 188.126 89.3701 185.244 77.9797 179.874C70.1687 176.161 63.1544 170.963 57.3278 164.57C59.4926 151.813 64.2754 137.123 73.5428 121.264L117.56 123.054C117.56 123.054 132.135 148.699 129.69 178.597Z" fill="#FDC583"/>
<path d="M45.7701 86.8533L45.9522 86.6511C28.0836 44.726 47.7576 18.7799 47.7576 18.7799C59.5506 36.9777 58.7523 62.2409 57.6505 73.6128L73.0198 56.5126C73.2038 55.3736 74.9167 25.1463 50.3388 12.8289C50.3617 12.8355 14.1792 56.3061 45.7701 86.8533Z" fill="#FF5F54"/>
<path d="M46.6769 87.6834L58.3981 74.6517C59.5 63.2799 60.2982 38.0166 48.5053 19.8189C48.4823 19.8123 28.8083 45.7584 46.6769 87.6834Z" fill="url(#paint2_linear)"/>
<path d="M107.192 64.4639L124.604 79.9153C125.321 74.4254 131.027 32.4711 141.859 11.9898C154.474 41.1996 147.012 63.7703 128.763 82.723C133.11 80.3744 158.02 64.7454 146.989 20.6017L142.832 5.65412C142.832 5.65412 114.089 27.6102 107.192 64.4639Z" fill="#FF5F54"/>
<path d="M142.428 8.44869C131.302 29.6213 125.077 72.7987 124.292 78.4482L127.803 81.6238C127.803 81.6238 128.029 81.5188 128.439 81.2847C147 61.5961 154.764 38.316 142.428 8.44869Z" fill="url(#paint3_linear)"/>
<path d="M42.7648 95.3576C78.8265 99.7609 103.438 90.0533 103.438 90.0533C136.476 100.065 153.872 98.9614 163.038 95.2502C165.584 92.0356 167.708 88.5086 169.359 84.755C169.359 84.755 164.255 87.3027 162.048 85.4829C162.048 85.4829 169.747 82.4042 171.351 79.1583C171.351 79.1583 162.483 83.8839 155.601 76.6285C155.601 76.6285 137.943 32.476 98.876 31.3543C98.22 31.3543 97.564 31.3065 96.908 31.2588C93.4492 30.9843 78.8265 30.8352 65.647 45.5248C65.647 45.5248 53.8272 57.5534 44.7149 91.4077C44.2945 92.8258 43.6349 94.1617 42.7648 95.3576Z" fill="#FF5F54"/>
<path d="M28.9174 100.889C28.9174 100.889 37.7494 114.558 72.4037 126.097L83.4482 129.081C99.0974 133.236 115.753 131.052 129.803 123.001L130.167 122.804C130.167 122.804 150.843 111.026 163.014 95.28C153.848 98.9912 136.452 100.095 103.414 90.0831C103.414 90.0831 78.8026 99.7907 42.7409 95.3874C40.7133 98.2931 36.5925 101.676 28.9174 100.889Z" fill="url(#paint4_linear)"/>
<path d="M94.0336 93.0963C93.8308 95.638 97.0154 97.9709 101.106 98.2991C105.197 98.6273 108.716 96.8433 108.919 94.3015C109.121 91.7598 105.937 89.4268 101.852 89.0927C97.7668 88.7586 94.2423 90.5843 94.0336 93.0963Z" fill="#511812"/>
<path d="M134.407 103.156C134.198 105.698 137.389 108.025 141.474 108.359C145.559 108.693 149.083 106.903 149.286 104.355C149.489 101.807 146.304 99.4805 142.219 99.1523C138.134 98.8241 134.61 100.608 134.407 103.156Z" fill="#FFCDD4"/>
<path d="M54.8947 102.631C54.6263 105.167 57.7274 107.583 61.8243 108.001C65.9213 108.418 69.4696 106.742 69.7439 104.206C70.0183 101.67 66.9172 99.2538 62.8143 98.8361C58.7113 98.4184 55.169 100.095 54.8947 102.631Z" fill="#FFCDD4"/>
<path d="M73.3347 92.9826C75.7817 92.7219 77.365 89.609 76.9274 86.0321C76.4898 82.4552 74.1062 79.7751 71.6651 80.0149C69.2239 80.2548 67.6348 83.3885 68.0724 86.9654C68.51 90.5424 70.9051 93.2433 73.3347 92.9826Z" fill="#511812"/>
<path d="M126.335 91.9844C128.782 91.7289 130.365 88.6156 129.927 85.0329C129.49 81.4503 127.106 78.7751 124.665 79.0149C122.224 79.2548 120.635 82.389 121.072 85.9716C121.51 89.5543 123.888 92.2295 126.335 91.9844Z" fill="#511812"/>
<path d="M91.5895 105.006L91.6016 105.033C98.0095 112.095 104.555 107.633 104.624 107.582C104.859 107.418 105.019 107.167 105.069 106.884C105.119 106.602 105.054 106.311 104.89 106.076C104.726 105.841 104.475 105.681 104.192 105.631C103.91 105.581 103.619 105.645 103.384 105.809C103.158 105.962 98.2832 109.19 93.2069 103.58C93.0125 103.383 92.7497 103.267 92.4726 103.257C92.1956 103.247 91.9251 103.343 91.7168 103.526C91.5085 103.709 91.3781 103.965 91.3524 104.241C91.3267 104.517 91.4076 104.792 91.5786 105.011L91.5895 105.006Z" fill="#511812"/>
<rect x="45" y="159.217" width="55" height="36" rx="2" transform="rotate(-26 45 159.217)" fill="#9088D4"/>
<rect x="45" y="159.106" width="54.9908" height="2.87767" transform="rotate(-26 45 159.106)" fill="#194070"/>
<path d="M71.0532 125.525C72.7479 126.149 74.1968 127.302 75.1859 128.814C76.175 130.326 76.6517 132.116 76.5456 133.92C75.3171 153.508 81.4655 166.038 86.1589 171.944C86.8352 172.815 87.3157 173.821 87.5675 174.894C87.8193 175.967 87.8365 177.082 87.6179 178.162C87.3993 179.243 86.9501 180.263 86.301 181.154C85.6519 182.044 84.8182 182.784 83.8569 183.323C82.3758 184.15 80.6644 184.468 78.9851 184.229C77.3057 183.99 75.7512 183.206 74.5597 181.998C55.0767 162.482 56.7823 142.273 59.949 131.205C60.2638 130.076 60.8092 129.024 61.5506 128.116C62.2921 127.208 63.2136 126.464 64.2569 125.93C65.3003 125.396 66.4428 125.085 67.6126 125.015C68.7823 124.945 69.9538 125.119 71.0532 125.525Z" fill="#FF5F54"/>
</g>
<defs>
<linearGradient id="paint0_linear" x1="25" y1="140" x2="76" y2="203" gradientUnits="userSpaceOnUse">
<stop stop-color="#F6625A"/>
<stop offset="1" stop-color="#D95149"/>
</linearGradient>
<linearGradient id="paint1_linear" x1="7.96329" y1="88.0192" x2="51.3458" y2="90.3795" gradientUnits="userSpaceOnUse">
<stop stop-color="#FFECEF"/>
<stop offset="1" stop-color="white"/>
</linearGradient>
<linearGradient id="paint2_linear" x1="46.5924" y1="32.4574" x2="67.6169" y2="39.0769" gradientUnits="userSpaceOnUse">
<stop stop-color="#FFECEF"/>
<stop offset="1" stop-color="white"/>
</linearGradient>
<linearGradient id="paint3_linear" x1="141.701" y1="22.2232" x2="157.416" y2="29.2323" gradientUnits="userSpaceOnUse">
<stop stop-color="#FFECEF"/>
<stop offset="1" stop-color="white"/>
</linearGradient>
<linearGradient id="paint4_linear" x1="49" y1="98" x2="154" y2="119.5" gradientUnits="userSpaceOnUse">
<stop stop-color="#FFECEF"/>
<stop offset="1" stop-color="white"/>
</linearGradient>
<clipPath id="clip0">
<rect width="184" height="263" fill="white"/>
</clipPath>
</defs>
</svg>
